<svg xmlns="http://www.w3.org/2000/svg" xmlns:xlink="http://www.w3.org/1999/xlink" width="261" height="41" viewBox="0 0 261 41">
    <defs>
        <path id="a" d="M0 .52h30.095v34.646H0z"/>
    </defs>
    <g fill="none" fill-rule="evenodd">
        <g fill-rule="nonzero">
            <path fill="#FFF" d="M228.463 15.657l-.323-.794h-1.485l-.322.794h-.789l1.507-3.563h.712l1.507 3.563h-.807zm-1.064-2.627l-.466 1.148h.932l-.466-1.148zM231.381 15.718c-1.095 0-1.846-.771-1.846-1.82v-.01c0-1.006.78-1.83 1.843-1.83.632 0 1.015.171 1.38.486l-.49.592c-.27-.228-.51-.36-.919-.36-.562 0-1.009.502-1.009 1.103v.01c0 .646.44 1.122 1.063 1.122.281 0 .534-.07.728-.212v-.505h-.779v-.672h1.526v1.537a2.255 2.255 0 0 1-1.497.56zM233.725 15.657V12.12h2.65v.691h-1.884v.717h1.657v.692h-1.657v.743h1.906v.691zM239.65 15.657l-1.701-2.248v2.252h-.763V12.12h.712l1.647 2.18v-2.18h.764v3.537zM242.898 15.718c-1.034 0-1.8-.804-1.8-1.82v-.01c0-1.006.753-1.83 1.832-1.83.664 0 1.06.223 1.386.547l-.492.573c-.271-.248-.546-.399-.897-.399-.594 0-1.019.495-1.019 1.103v.01c0 .608.415 1.113 1.019 1.113.402 0 .648-.161.923-.415l.491.501c-.364.386-.766.627-1.443.627zM245.092 15.657V12.12h.772v3.537zM249.46 15.657l-.323-.794h-1.485l-.322.794h-.789l1.507-3.563h.712l1.507 3.563h-.807zm-1.067-2.627l-.466 1.148h.932l-.466-1.148zM227.22 20.668h-1.37V17.13h1.37c1.105 0 1.868.762 1.868 1.76v.009c-.003.994-.766 1.769-1.867 1.769zm1.057-1.769c0-.627-.427-1.068-1.06-1.068h-.597v2.132h.597c.633 0 1.06-.43 1.06-1.058V18.9zM229.909 20.668V17.13h.773v3.538zM233.351 20.729c-1.095 0-1.846-.775-1.846-1.82v-.01c0-1.007.78-1.83 1.843-1.83.632 0 1.015.17 1.38.486l-.486.591c-.272-.228-.511-.36-.92-.36-.562 0-1.009.502-1.009 1.103v.01c0 .646.441 1.122 1.064 1.122.28 0 .533-.07.728-.212v-.505h-.78v-.672h1.527v1.537a2.29 2.29 0 0 1-1.501.56zM235.73 20.668V17.13h.773v3.538zM239.073 17.847v2.82h-.773v-2.82h-1.07v-.717h2.91v.717zM243 20.668l-.322-.795h-1.485l-.322.795h-.79l1.508-3.563h.712l1.507 3.563H243zm-1.066-2.628l-.466 1.148h.932l-.466-1.148zM244.45 20.668V17.13h.773v2.83h1.752v.708zM250.631 20.668h-1.37V17.13h1.37c1.105 0 1.868.762 1.868 1.76v.009c0 .994-.763 1.769-1.868 1.769zm1.06-1.769c0-.627-.427-1.068-1.06-1.068h-.597v2.132h.597c.633 0 1.06-.43 1.06-1.058V18.9zM253.288 20.668V17.13h2.65v.692h-1.88v.717h1.657v.691h-1.657v.743h1.906v.695h-2.676zM225.883 25.678v-3.537h.772v3.537zM230.1 25.678l-1.701-2.251v2.251h-.763v-3.537h.712l1.647 2.18v-2.18h.763v3.537zM234.165 25.678l-1.702-2.251v2.251h-.763v-3.537h.715l1.648 2.18v-2.18h.763v3.537zM237.473 25.736c-1.085 0-1.861-.814-1.861-1.82v-.007c0-1.006.788-1.83 1.87-1.83 1.083 0 1.862.814 1.862 1.818v.012c0 1.004-.788 1.827-1.87 1.827zm1.063-1.83c0-.608-.44-1.113-1.063-1.113-.622 0-1.054.496-1.054 1.104v.012c0 .608.441 1.113 1.064 1.113.622 0 1.053-.495 1.053-1.103v-.013zM241.71 25.7h-.683l-1.42-3.563h.852l.92 2.493.919-2.493h.833zM245.887 25.678l-.323-.794h-1.485l-.322.794h-.789l1.507-3.563h.712l1.508 3.563h-.808zm-1.067-2.63l-.466 1.148h.932l-.466-1.148zM248.757 25.736c-1.034 0-1.8-.804-1.8-1.82v-.007c0-1.006.753-1.83 1.832-1.83.664 0 1.06.222 1.386.547l-.492.573c-.271-.248-.546-.4-.897-.4-.59 0-1.019.496-1.019 1.104v.01c0 .607.415 1.112 1.019 1.112.402 0 .648-.16.923-.415l.491.502c-.364.383-.766.624-1.443.624zM250.948 25.678v-3.537h.772v3.537zM254.409 25.736c-1.083 0-1.862-.814-1.862-1.82v-.007c0-1.006.789-1.83 1.871-1.83 1.083 0 1.862.814 1.862 1.82v.01c0 1.004-.789 1.827-1.871 1.827zm1.063-1.83c0-.608-.44-1.113-1.063-1.113s-1.054.496-1.054 1.104v.012c0 .608.44 1.113 1.063 1.113s1.054-.495 1.054-1.103v-.013zm-1.331-2.045l.568-.894.658.29-.642.607-.584-.003zM259.53 25.678l-1.698-2.251v2.251h-.763v-3.537h.712l1.647 2.18v-2.18h.763v3.537zM227.21 29.624h-.587v1.061h-.772v-3.537h1.437c.836 0 1.344.502 1.344 1.222v.01c-.003.82-.636 1.244-1.421 1.244zm.64-1.238c0-.347-.24-.537-.63-.537h-.597v1.08h.613c.387 0 .614-.231.614-.537v-.006zM230.768 30.743c-.945 0-1.52-.53-1.52-1.572v-2.023h.773v2.003c0 .576.287.875.756.875.47 0 .757-.29.757-.849v-2.026h.773v1.997c.003 1.068-.594 1.595-1.54 1.595zm-.335-3.85L231 26l.658.29-.642.607-.584-.003zM234.868 30.685h-1.67v-3.537h1.631c.719 0 1.16.36 1.16.913v.01c0 .399-.211.62-.464.762.406.158.658.396.658.868v.01c0 .653-.52.974-1.315.974zm.35-2.492c0-.232-.181-.363-.507-.363h-.763v.749h.712c.342 0 .556-.113.556-.373l.003-.013zm.196 1.415c0-.238-.176-.386-.572-.386h-.894V30h.92c.341 0 .546-.122.546-.386v-.006zM236.92 30.685v-3.537h.773v2.83h1.753v.707zM240.165 30.685v-3.537h.773v3.537zM243.562 30.746c-1.034 0-1.8-.804-1.8-1.82v-.01c0-1.006.753-1.83 1.832-1.83.664 0 1.06.223 1.386.547l-.492.57c-.271-.248-.546-.4-.897-.4-.594 0-1.019.496-1.019 1.104v.01c0 .607.415 1.112 1.019 1.112.402 0 .648-.16.923-.415l.491.502c-.364.39-.766.63-1.443.63zM248.336 30.685l-.323-.794h-1.485l-.322.794h-.789l1.507-3.563h.712l1.508 3.563h-.808zm-1.067-2.627l-.466 1.148h.932l-.466-1.148zM210.377 21.723v-6.214c0-.01 0-.022-.01-.032v6.246h.01z"/>
            <path fill="#FFF" d="M221.422 17.33c-.102-3.457-3.033-6.271-6.536-6.271h-5.559c-.686 0-1.245.562-1.245 1.254v5.666c.006.03.016.061.022.09a14.074 14.074 0 0 1 .204 5.294c-.054.353-.12.7-.204 1.042v7.258s1.84.708 2.229-.264v-7.412c1.376.003 4.591.003 4.668.003 3.55-.003 6.424-2.904 6.421-6.48.003-.058 0-.12 0-.18zM218 20.45a4.136 4.136 0 0 1-2.995 1.279l-4.668-.003h-.003v-8.407h4.556c2.3 0 4.221 1.827 4.288 4.075A4.19 4.19 0 0 1 218 20.449z"/>
            <path fill="#666" d="M205.799 15.194a9.24 9.24 0 0 0-.562-.675v.039c.198.218.383.443.562.675v-.039z"/>
            <path fill="#FFF" d="M206.837 16.847a11.069 11.069 0 0 0-.69-1.174c-.112-.164-.23-.324-.348-.482v.035a10.131 10.131 0 0 0-1.105-1.231v3.354a7.976 7.976 0 0 1 1.015 3.91c0 4.274-3.355 7.79-7.608 8.127l.054.11.642 1.315.287.592.051.106a10.375 10.375 0 0 0 2.998-.959l.265-.135c.217-.116.435-.241.642-.37l.051-.032a10.52 10.52 0 0 0 3.742-4.126 9.925 9.925 0 0 0 1.038-3.676 10.09 10.09 0 0 0-1.034-5.364zM198.346 31.496l-.98-2.017-.029-.06-.14-.29-.176-.36-3.282-6.882v4.212l1.08 2.178.213.44.109.225c.01.023.019.049.025.074l.067.139.125.257 1.031 2.126.013.025a.14.14 0 0 0 .019.023c.067.006.137.016.204.022h1.699c.022 0 .045-.01.06-.029l-.038-.083zM189.68 13.377l.004-.003-.59-1.216-.572-1.167a.088.088 0 0 0-.03-.039.099.099 0 0 0-.057-.028c-.01-.004-.019-.007-.032-.007-.012 0-.022.003-.035.007a.127.127 0 0 0-.057.032.151.151 0 0 0-.029.038l-9.978 20.48a.093.093 0 0 0 .003.086.09.09 0 0 0 .077.042h1.446a.695.695 0 0 0 .623-.39l1.092-2.244c.003-.01.006-.02.013-.029l5.674-11.648a10.914 10.914 0 0 1 .386-.916c.057-.12.115-.235.176-.351.019-.039.038-.077.06-.113l.023-.041c.054-.1.108-.203.166-.303l.054-.093c.067-.113.134-.222.204-.331l2.26 4.554v-4.474l-.88-1.846z"/>
            <path fill="#96B737" d="M204.745 23.945v-.023a7.626 7.626 0 0 1-1.702 2.624 7.72 7.72 0 0 1-.447.412v.032a7.65 7.65 0 0 0 2.15-3.045z"/>
            <path fill="#66A13C" d="M202.548 31.184v.402a.05.05 0 0 0 .048.048h1.747c.195 0 .354-.16.354-.357v-1.499c-.66.55-1.382 1.023-2.149 1.406zM204.566 10.991h-1.887c-.07 0-.13.058-.13.129v15.838a7.464 7.464 0 0 0 2.146-2.975l-.001-12.863a.129.129 0 0 0-.128-.129z"/>
            <path fill="#FFF" d="M197.2 10.991h-5.83a.239.239 0 0 0-.24.235v19.826a.476.476 0 0 0 .48.473l.944.003 3.05.006-1.025-2.112h-1.303v-16.29s3.946-.025 4.148-.025a8.301 8.301 0 0 1 5.118 1.753v-2.457a10.808 10.808 0 0 0-5.342-1.412z"/>
        </g>
        <path fill="#FFF" d="M166.62 35.417h.949v-29.4h-.948z"/>
        <path fill="#28A231" d="M53.173 22.973c.207.318.494.462.898.472.55.014.9-.53.9-.53l9.112-11.755c.752-.79 1.494-.152 1.494-.152.72.758.183 1.451.183 1.451l-2.037 2.625v.014a1.011 1.011 0 0 0-.044 1.357v.004l2.05 2.617 6.458-8.272-2.58-3.312-.477-.625c-.42-.606-1.354-.747-1.354-.747h-3.867c-1.025 0-1.584.714-1.584.714L51.495 20.83l1.678 2.143zM52.714 15.799l-2.59-3.345c-.528-.855.24-1.467.24-1.467.968-.569 1.53.308 1.53.308l2.143 2.772 2.537-3.291-2.925-3.79c-.699-1.007-1.763-.866-1.763-.866h-3.493c-1.119 0-1.6.7-1.6.7l-3.088 3.949 6.458 8.307 2.55-3.277z"/>
        <path fill="#28A231" d="M62.699 18.65s-.299-.464-.873-.455c-.598.009-.84.41-.84.41l-9.203 11.904c-.746.825-1.548.161-1.548.161-.721-.758-.13-1.46-.13-1.46l2.064-2.67v-.014a1.01 1.01 0 0 0 .043-1.357v-.005l-2.05-2.616-6.479 8.365 3.613 4.604 5.676.015 11.416-14.704-1.69-2.177zM63.174 25.824l2.613 3.385c.601.84-.157 1.461-.157 1.461-1.004.679-1.618-.335-1.618-.335l-2.185-2.796-2.538 3.291 3.66 4.717 5.633-.015 3.612-4.663-6.472-8.325-2.548 3.28zM72.146 18.24a2.615 2.615 0 0 0-2.62 2.603 2.615 2.615 0 0 0 2.62 2.604 2.615 2.615 0 0 0 2.62-2.604 2.615 2.615 0 0 0-2.62-2.603m0 4.003a1.39 1.39 0 0 1-1.378-1.4c0-.772.618-1.4 1.378-1.4.76 0 1.378.628 1.378 1.4 0 .773-.618 1.4-1.378 1.4M57.93 6.125a2.615 2.615 0 0 0 2.62-2.604A2.615 2.615 0 0 0 57.93.917a2.614 2.614 0 0 0-2.619 2.604 2.614 2.614 0 0 0 2.619 2.604m0-4.004c.76 0 1.377.628 1.377 1.4 0 .772-.617 1.4-1.377 1.4a1.391 1.391 0 0 1-1.378-1.4c0-.772.62-1.4 1.378-1.4M57.93 40.86a2.614 2.614 0 0 0 2.62-2.603 2.614 2.614 0 0 0-2.62-2.603 2.614 2.614 0 0 0-2.619 2.603 2.614 2.614 0 0 0 2.619 2.604m0-4.004c.76 0 1.377.628 1.377 1.4 0 .772-.617 1.4-1.377 1.4a1.391 1.391 0 0 1-1.378-1.4c0-.772.62-1.4 1.378-1.4M46.296 20.834a2.615 2.615 0 0 0-2.619-2.605 2.616 2.616 0 0 0-2.62 2.605 2.615 2.615 0 0 0 2.62 2.604 2.615 2.615 0 0 0 2.62-2.604m-3.998 0c0-.773.618-1.401 1.378-1.401.759 0 1.377.628 1.377 1.4 0 .772-.618 1.4-1.377 1.4-.76 0-1.378-.628-1.378-1.4"/>
        <g transform="translate(.495 2.985)">
            <mask id="b" fill="#fff">
                <use xlink:href="#a"/>
            </mask>
            <path fill="#FFF" d="M29.362 1.258v19.473c0 2.359-.737 4.538-2.19 6.474-1.184 1.579-2.844 3.008-4.938 4.249-3.203 1.9-6.457 2.775-7.187 2.956-.726-.18-3.955-1.046-7.156-2.939-2.1-1.24-3.768-2.67-4.957-4.25C1.474 25.28.732 23.095.732 20.73V1.258h28.63zm.733-.738H0v20.21c0 11.093 15.04 14.436 15.04 14.436h.015s15.04-3.343 15.04-14.435V.52z" mask="url(#b)"/>
        </g>
        <path fill="#FFF" d="M19.187 9.974V8.118h-1.896V9.85h-.74V8.118h-1.952V9.85h-.74V8.118H11.93v1.857l.941 1.628c.033.057.05.121.05.187l.008 8.499h.91l-.008-3.052c0-.721.812-1.375 1.705-1.375.895 0 1.707.654 1.707 1.373l.01 3.054h.935l-.003-3.222-.002-.045v-1.598-1.188-.514l-.003-1.931c0-.067.018-.133.052-.19l.954-1.627zM12.19 20.488l-.004-2.817-.336.204a.366.366 0 0 1-.4-.012l-.406-.28v.036l-.013 1.085a.375.375 0 0 1-.141.289.38.38 0 0 1 .117.063c.493.398.53.968.424 1.432h.758z"/>
        <path fill="#FFF" d="M15.538 16.608c-.568 0-.967.407-.967.627l.01 3.054h1.932l-.008-3.053c0-.22-.399-.628-.967-.628"/>
        <path fill="#FFF" d="M4.257 20.488a3.412 3.412 0 0 1-.237-.857c-.094-.588-.074-1.13-.074-1.153a.37.37 0 0 1 .261-.341l.808-.252-.912-.65a.375.375 0 0 1-.157-.305v-1.032c0-.14.077-.267.199-.331l.357-.187v-.352l-.325-.132a.375.375 0 0 1-.231-.345l-.001-1.242c0-.205.163-.371.366-.373l1.142-.01c-.02-.306-.026-.721.047-1.066.1-.466.363-.971.488-1.197l-.06-.43a.375.375 0 0 1 .366-.426h.615c.07 0 .14.02.2.058l1.504.961h.693a.372.372 0 0 1 .37.39l-.053 1.194a.375.375 0 0 1-.12.259h.46c.1.001.196.043.265.116l.21.22.16-.124.266-.566a.37.37 0 0 1 .336-.213h.982v-.212l-.941-1.627a.37.37 0 0 1-.05-.187v-2.33c0-.206.166-.374.37-.374H19.558c.204 0 .37.168.37.373v2.33a.37.37 0 0 1-.05.19l-.955 1.627v.21h.974c.143 0 .273.082.335.213l.267.566.159.123.21-.22a.369.369 0 0 1 .266-.114l.46-.001a.376.376 0 0 1-.12-.259l-.052-1.194a.374.374 0 0 1 .37-.39h.692l1.504-.96a.375.375 0 0 1 .198-.059h.617a.372.372 0 0 1 .366.425l-.061.431c.126.226.388.731.488 1.197.074.345.067.76.047 1.065l1.142.01a.372.372 0 0 1 .367.374l-.002 1.242c0 .15-.09.287-.23.345l-.326.132v.352l.357.187a.374.374 0 0 1 .199.33v1.033c0 .12-.058.234-.156.304l-.914.65.81.253c.15.046.254.184.26.341 0 .023.02.565-.073 1.153a3.439 3.439 0 0 1-.237.857h1.346l.017.002V6.084H2.916v14.404h1.34z"/>
        <path fill="#FFF" d="M20.088 19.056a.37.37 0 0 1 .118-.064.373.373 0 0 1-.143-.288l-.014-1.085c0-.013 0-.024.002-.037l-.406.281a.37.37 0 0 1-.4.012l-.319-.193.003 2.805h.735c-.105-.464-.068-1.033.424-1.431M25.004 28.19a.372.372 0 0 1-.37-.373v-2.436c0-.18-.109-.405-.277-.572a1.02 1.02 0 0 0-.76-.297c-.567.008-.908.451-.956.888v2.417a.368.368 0 0 1-.37.373h-2.199a.37.37 0 0 1-.37-.373v-2.436c0-.18-.108-.405-.277-.572a1.02 1.02 0 0 0-.759-.297.943.943 0 0 0-.643.256l1.81 9.289c2.544-1.137 5.558-2.99 7.185-5.867h-2.014zM19.122 34.288l-2.541-13.055h-2.065l-2.539 13.06a.445.445 0 0 1-.014.052c1.764.73 3.197 1.1 3.596 1.227.406-.128 1.83-.496 3.582-1.218a.551.551 0 0 1-.019-.066M13.077 24.756a.955.955 0 0 0-.628-.244h-.02c-.362 0-.602.162-.74.299-.168.167-.276.39-.276.572v2.436a.371.371 0 0 1-.37.373h-2.2a.372.372 0 0 1-.371-.373V25.4c-.047-.437-.387-.879-.955-.889h-.02c-.362 0-.602.162-.74.299-.168.167-.277.39-.277.572v2.436a.37.37 0 0 1-.37.373H4.104c1.624 2.867 4.627 4.719 7.167 5.856l1.806-9.292z"/>
        <path fill="#FFF" d="M28.185 21.233h-10.85l.532 2.737c.238-.129.506-.2.787-.205.487-.008.949.175 1.29.514.312.308.498.72.498 1.102v2.064h1.46V25.38l.001-.034a1.726 1.726 0 0 1 1.682-1.582c.494-.008.95.175 1.292.514.312.308.497.72.497 1.102v2.064h2.022a9.09 9.09 0 0 0 .806-3.792V21.23l-.017.002M5.74 27.446v-2.063c0-.383.186-.795.498-1.104a1.788 1.788 0 0 1 1.291-.512 1.727 1.727 0 0 1 1.684 1.616v2.063h1.46v-2.063c0-.383.185-.795.497-1.104a1.789 1.789 0 0 1 1.291-.512c.274.004.536.074.77.197l.531-2.731H2.916v2.42c0 1.416.301 2.675.809 3.793H5.74zM6.61 19.72h.601a.643.643 0 0 1 .084.25c.002.05.005.1.01.152-.001.13-.024.26-.05.365H5.152c-.303-.208-.455-1.036-.467-1.717l.92-.287a.374.374 0 0 0 .26-.357v-.357a.372.372 0 0 0-.156-.304l-1.022-.728v-.614l.356-.187a.372.372 0 0 0 .2-.33v-.829a.374.374 0 0 0-.232-.346l-.325-.132v-.62l.97-.01.46.76.004 1.062-.317 1.007a.37.37 0 0 0 .353.486h.28a.371.371 0 0 0 .365-.314c.027-.165.115-.64.198-.855.064-.167.328-.523.494-.724a.376.376 0 0 0-.005-.485l-1.273-1.47c-.024-.222-.069-.748.01-1.12.085-.404.364-.918.463-1.082a.373.373 0 0 0 .051-.247l-.019-.134h.083l1.505.961c.059.038.128.058.198.058h.412l-.024.556-.485.178a.375.375 0 0 0-.244.353l.002.382c.002.205.167.37.37.37l1.267.005.33.345c.131.137.343.153.492.037 0 0 .576-.461.602-.515l.205-.436h.739V14.203s-1.35.468-1.463.523c-.088.044-.136.465-.121.567.015.101.01.142.155.25 0 0 .394.311.514.355l.393-.378.52.035v1.257l-.497.3-1.553-1.07a.37.37 0 0 0-.501.078l-.243.313a.376.376 0 0 0 .038.502l.889.838-.009.682-.891.399a.374.374 0 0 0-.22.34v.153c0 .206.166.373.37.373h1.072c.185.231.113.559.035.767H8.189c-.084-.088-.127-.245-.145-.42a1.83 1.83 0 0 0-.009-.144 2.752 2.752 0 0 1 .056-.621l.575-.742a.371.371 0 0 0 .078-.212l.017-.355a.374.374 0 0 0-.156-.322.367.367 0 0 0-.354-.04l-.928.38a.373.373 0 0 0-.226.291l-.055.373-.538.164a.373.373 0 0 0-.264.357v.15c0 .207.166.374.37.374M24.485 19.72h-.6a.645.645 0 0 0-.086.25c0 .05-.004.1-.009.152.002.13.025.26.05.365h2.103c.304-.208.455-1.036.468-1.717l-.92-.287a.373.373 0 0 1-.261-.357v-.357c0-.12.06-.235.157-.304l1.022-.728v-.614l-.357-.187a.373.373 0 0 1-.2-.33v-.829c0-.152.092-.289.232-.346l.326-.132v-.62l-.97-.01-.461.76-.003 1.062.317 1.007a.374.374 0 0 1-.354.486h-.28a.371.371 0 0 1-.365-.314c-.027-.165-.115-.64-.197-.855-.064-.167-.328-.523-.495-.724a.378.378 0 0 1 .005-.485l1.273-1.47c.025-.222.07-.748-.009-1.12-.085-.404-.365-.918-.464-1.082a.377.377 0 0 1-.051-.247l.018-.134h-.081l-1.505.961a.367.367 0 0 1-.199.058h-.413l.025.556.486.178a.374.374 0 0 1 .244.353l-.002.382a.372.372 0 0 1-.37.37l-1.267.005-.33.345a.368.368 0 0 1-.493.037s-.576-.461-.602-.515l-.204-.436h-.74V14.203s1.352.468 1.463.523c.088.044.137.465.122.567-.016.101-.01.142-.155.25 0 0-.395.311-.515.355l-.392-.378-.52.035v1.257l.497.3 1.552-1.07a.368.368 0 0 1 .5.078l.244.313a.375.375 0 0 1-.038.502l-.889.838.01.682.89.399c.134.06.22.194.22.34v.153a.372.372 0 0 1-.37.373H20.47c-.185.231-.112.559-.035.767h2.471c.084-.088.128-.245.145-.42.001-.048.004-.096.01-.144a2.79 2.79 0 0 0-.056-.621l-.576-.742a.377.377 0 0 1-.078-.212l-.017-.355a.372.372 0 0 1 .511-.363l.927.381c.121.05.207.16.226.291l.055.373.539.164a.373.373 0 0 1 .263.357v.15a.372.372 0 0 1-.37.374M82.688 16.415v-.013c0-1.418 1.033-2.672 2.571-2.672.865 0 1.4.25 1.912.687l-.373.441c-.396-.346-.835-.59-1.56-.59-1.136 0-1.949.967-1.949 2.118v.016c0 1.231.783 2.145 2.028 2.145.587 0 1.13-.228 1.48-.515v-1.284h-1.56v-.525h2.118v2.059a3.1 3.1 0 0 1-2.06.79c-1.61 0-2.607-1.18-2.607-2.657M89.25 16.415v-.013c0-1.424 1.063-2.672 2.623-2.672 1.56 0 2.608 1.232 2.608 2.656v.016c0 1.423-1.063 2.67-2.622 2.67-1.56 0-2.609-1.232-2.609-2.657m4.631 0v-.013c0-1.174-.85-2.134-2.022-2.134-1.173 0-2.008.945-2.008 2.118v.016c0 1.173.85 2.131 2.022 2.131 1.172 0 2.008-.944 2.008-2.118M96.553 13.818h2.183c.587 0 1.048.17 1.34.458.214.222.33.495.33.826v.015c0 .672-.41 1.018-.812 1.196.608.184 1.098.537 1.098 1.246v.015c0 .885-.74 1.41-1.86 1.41h-2.279v-5.166zm3.267 1.365c0-.509-.402-.84-1.134-.84h-1.561v1.778h1.516c.696 0 1.18-.318 1.18-.923v-.015zm-1.076 1.454h-1.62v1.822h1.723c.776 0 1.259-.347 1.259-.922v-.014c0-.561-.468-.886-1.362-.886zM102.762 18.983h.578V13.82h-.578zM105.683 13.818h3.706v.532h-3.128v1.763h2.8v.531h-2.8v1.808h3.165v.531h-3.743zM111.346 13.818h2.204c.63 0 1.136.192 1.458.517.25.25.396.612.396 1.018v.015c0 .855-.586 1.357-1.39 1.505l1.573 2.11h-.71l-1.487-2.007h-1.466v2.007h-.578v-5.165zm2.153 2.635c.77 0 1.319-.4 1.319-1.063v-.015c0-.634-.484-1.018-1.311-1.018h-1.583v2.096h1.575zM117.49 13.818h.542l3.23 4.14v-4.14h.565v5.165h-.462l-3.311-4.235v4.235h-.564zM123.898 16.415v-.013c0-1.424 1.063-2.672 2.622-2.672 1.561 0 2.609 1.232 2.609 2.656v.016c0 1.423-1.063 2.67-2.623 2.67-1.56 0-2.608-1.232-2.608-2.657m4.63 0v-.013c0-1.174-.85-2.134-2.022-2.134-1.172 0-2.008.945-2.008 2.118v.016c0 1.173.85 2.131 2.022 2.131 1.173 0 2.009-.944 2.009-2.118M133.869 13.818h1.78c1.61 0 2.724 1.115 2.724 2.568v.015c0 1.453-1.113 2.582-2.724 2.582h-1.78v-5.165zm.578.54v4.086h1.202c1.296 0 2.124-.885 2.124-2.029v-.014c0-1.144-.828-2.044-2.124-2.044h-1.202zM140.213 13.818h3.706v.532h-3.128v1.763h2.798v.531h-2.798v1.808h3.165v.531h-3.743zM148.564 13.818h.579v4.626h2.887v.54h-3.466zM155.582 13.782h.543l2.337 5.201h-.623l-.6-1.364h-2.792l-.608 1.364h-.594l2.337-5.201zm1.429 3.304l-1.166-2.625-1.171 2.625h2.337zM82.578 25.269v-.014c0-1.469 1.1-2.672 2.674-2.672.967 0 1.546.325 2.022.798l-.718.833c-.396-.361-.799-.583-1.31-.583-.866 0-1.488.723-1.488 1.609v.015c0 .884.608 1.622 1.488 1.622.585 0 .944-.235 1.346-.605l.718.73c-.526.57-1.113.923-2.102.923-1.509 0-2.63-1.173-2.63-2.656M88.242 27.837h1.128v-5.164h-1.128zM90.672 25.623v-2.95H91.8v2.922c0 .84.418 1.274 1.106 1.274.689 0 1.106-.42 1.106-1.238v-2.959h1.128v2.915c0 1.564-.872 2.33-2.25 2.33-1.376 0-2.218-.773-2.218-2.294M96.423 22.672h2c1.612 0 2.725 1.114 2.725 2.568v.014c0 1.453-1.113 2.582-2.725 2.582h-2v-5.164zm2 4.139c.923 0 1.546-.627 1.546-1.542v-.015c0-.914-.623-1.556-1.546-1.556h-.871v3.113h.871zM103.647 22.636h1.04l2.198 5.2h-1.18l-.469-1.157h-2.167l-.47 1.158h-1.15l2.198-5.201zm1.187 3.04L104.153 24l-.681 1.675h1.362zM107.702 22.672h2c1.61 0 2.725 1.114 2.725 2.568v.014c0 1.453-1.114 2.582-2.726 2.582h-2v-5.164zm2 4.139c.923 0 1.545-.627 1.545-1.542v-.015c0-.914-.622-1.556-1.546-1.556h-.871v3.113h.871zM115.702 22.672h2c1.612 0 2.725 1.114 2.725 2.568v.014c0 1.453-1.113 2.582-2.725 2.582h-2v-5.164zm2 4.139c.923 0 1.545-.627 1.545-1.542v-.015c0-.914-.622-1.556-1.545-1.556h-.872v3.113h.872zM121.497 22.672h3.867v1.01h-2.746v1.05h2.417v1.01h-2.417v1.084h2.783v1.01h-3.904zM128.676 22.672h1.216l1.348 2.184 1.348-2.184h1.216v5.164h-1.121v-3.371l-1.443 2.206h-.029l-1.43-2.184v3.35h-1.105zM135.149 22.672h3.867v1.01h-2.746v1.05h2.417v1.01h-2.417v1.084h2.783v1.01h-3.904v-5.164zm2.146-1.711l.96.42-.937.885h-.85l.827-1.305zM141.567 25.21l-1.715-2.538h1.319l1.076 1.675 1.085-1.675h1.282l-1.714 2.523 1.787 2.642h-1.319l-1.15-1.771-1.157 1.77h-1.283zM145.552 27.837h1.128v-5.164h-1.128zM147.771 25.269v-.014c0-1.469 1.099-2.672 2.674-2.672.967 0 1.546.325 2.022.798l-.718.833c-.396-.361-.8-.583-1.311-.583-.865 0-1.487.723-1.487 1.609v.015c0 .884.608 1.622 1.487 1.622.586 0 .945-.235 1.347-.605l.719.73c-.528.57-1.114.923-2.103.923-1.51 0-2.63-1.173-2.63-2.656M153.036 25.269v-.014c0-1.469 1.15-2.672 2.732-2.672 1.583 0 2.718 1.188 2.718 2.657v.015c0 1.468-1.15 2.67-2.732 2.67-1.582 0-2.718-1.188-2.718-2.656m4.271 0v-.014c0-.886-.646-1.624-1.553-1.624-.909 0-1.538.723-1.538 1.609v.015c0 .884.643 1.622 1.552 1.622s1.539-.722 1.539-1.608"/>
    </g>
</svg>
