<svg xmlns="http://www.w3.org/2000/svg" width="191" height="48" viewBox="0 0 191 48">
    <g fill="none" fill-rule="evenodd">
        <path fill="#00B140" d="M63.633 26.322c.25.379.597.55 1.084.563.664.016 1.09-.632 1.09-.632l11.004-14.03c.909-.942 1.805-.18 1.805-.18.87.904.221 1.732.221 1.732l-2.461 3.133v.015a1.2 1.2 0 0 0-.053 1.62v.004l2.477 3.124 7.8-9.872-3.117-3.953-.575-.745c-.506-.723-1.636-.89-1.636-.89h-4.67c-1.24 0-1.914.851-1.914.851L61.606 23.764l2.027 2.558zM63.078 17.76l-3.13-3.993c-.636-1.02.293-1.75.293-1.75 1.168-.678 1.846.368 1.846.368l2.59 3.308 3.064-3.927-3.534-4.523c-.843-1.201-2.13-1.034-2.13-1.034H57.86c-1.351 0-1.932.836-1.932.836l-3.731 4.712 7.8 9.914 3.082-3.91z"/>
        <path fill="#00B140" d="M75.138 21.163s-.36-.553-1.053-.543c-.722.01-1.013.489-1.013.489L61.953 35.314c-.9.985-1.87.194-1.87.194-.87-.906-.156-1.744-.156-1.744l2.493-3.186.002-.017a1.202 1.202 0 0 0 .05-1.618v-.006l-2.476-3.123-7.826 9.983 4.363 5.495 6.857.017 13.79-17.547-2.042-2.599zM75.713 29.724l3.156 4.04c.727 1.003-.19 1.744-.19 1.744-1.212.81-1.952-.4-1.952-.4l-2.642-3.338L71.02 35.7l4.42 5.627 6.805-.017 4.363-5.564-7.818-9.936-3.078 3.915zM86.55 20.672c-1.744 0-3.164 1.395-3.164 3.109 0 1.712 1.42 3.107 3.165 3.107 1.744 0 3.164-1.395 3.164-3.107 0-1.714-1.42-3.109-3.164-3.109m0 4.78a1.67 1.67 0 0 1-1.664-1.671 1.67 1.67 0 0 1 1.664-1.672c.918 0 1.664.75 1.664 1.672a1.67 1.67 0 0 1-1.664 1.67M69.38 6.215c1.744 0 3.164-1.394 3.164-3.108 0-1.712-1.42-3.107-3.165-3.107-1.744 0-3.164 1.395-3.164 3.107 0 1.714 1.42 3.108 3.164 3.108m0-4.778c.918 0 1.664.749 1.664 1.67a1.67 1.67 0 0 1-1.664 1.672 1.67 1.67 0 0 1-1.664-1.672c0-.921.746-1.67 1.664-1.67M55.326 23.769c0-1.714-1.42-3.109-3.163-3.109-1.746 0-3.166 1.395-3.166 3.109 0 1.712 1.42 3.107 3.166 3.107 1.743 0 3.163-1.395 3.163-3.107m-4.828 0c0-.921.747-1.671 1.665-1.671a1.67 1.67 0 1 1 0 3.342 1.67 1.67 0 0 1-1.665-1.671"/>
        <path fill="#898D8D" d="M35.469 3.97v23.238c0 2.815-.89 5.416-2.646 7.726-1.43 1.884-3.437 3.59-5.965 5.07-3.869 2.268-7.8 3.312-8.682 3.529-.877-.216-4.776-1.248-8.643-3.507-2.538-1.481-4.552-3.189-5.989-5.074C1.78 32.637.885 30.03.885 27.208V3.969H35.47zm.884-.88H0v24.118c0 13.238 18.169 17.226 18.169 17.226h.017s18.167-3.988 18.167-17.226V3.09z"/>
        <path fill="#898D8D" d="M22.58 10.81V8.592h-2.29v2.068h-.894V8.593h-2.359v2.068h-.894V8.593h-2.328v2.217l1.136 1.942a.45.45 0 0 1 .06.224l.01 10.143h1.1l-.011-3.643c0-.86.983-1.64 2.061-1.64 1.08 0 2.062.78 2.062 1.639l.01 3.644h1.13l-.003-3.846a.692.692 0 0 1-.003-.054v-1.907c0-.01 0-.019.002-.028l-.002-1.39v-.612l-.002-2.305c0-.08.02-.158.062-.227l1.153-1.94zM14.126 23.356l-.002-3.362-.407.243a.445.445 0 0 1-.483-.014l-.491-.334c.001.015.002.029.001.043l-.016 1.295a.45.45 0 0 1-.172.345c.051.016.1.041.142.075.596.475.64 1.155.512 1.709h.916z"/>
        <path fill="#898D8D" d="M18.172 18.725c-.686 0-1.167.487-1.167.75l.011 3.644h2.334l-.01-3.643c0-.264-.483-.75-1.168-.75"/>
        <path fill="#898D8D" d="M4.544 23.356a4.047 4.047 0 0 1-.285-1.023c-.114-.701-.09-1.347-.09-1.375a.448.448 0 0 1 .315-.408l.978-.3-1.104-.777a.45.45 0 0 1-.19-.363v-1.233c0-.166.095-.318.242-.394l.432-.223v-.42l-.394-.159a.441.441 0 0 1-.28-.41v-1.483c0-.243.198-.442.442-.445l1.38-.013c-.024-.363-.032-.86.056-1.27.122-.556.439-1.16.59-1.43l-.073-.513a.445.445 0 0 1 .443-.507h.743a.45.45 0 0 1 .24.07l1.818 1.147h.836a.446.446 0 0 1 .447.464l-.063 1.425a.454.454 0 0 1-.146.31h.556a.45.45 0 0 1 .322.137l.253.262.193-.146.322-.678a.449.449 0 0 1 .404-.253h1.187v-.251l-1.136-1.942a.44.44 0 0 1-.061-.225V8.15c0-.245.2-.444.448-.444H23.027c.247 0 .447.199.447.444v2.781c0 .08-.022.159-.062.227l-1.153 1.941v.25h1.178c.172 0 .33.099.403.253l.323.678.192.146.254-.262a.447.447 0 0 1 .32-.136l.556-.001a.452.452 0 0 1-.145-.31l-.062-1.425a.444.444 0 0 1 .446-.464h.837l1.817-1.147a.445.445 0 0 1 .239-.07h.745a.445.445 0 0 1 .442.507l-.073.514c.152.27.469.873.589 1.428.089.411.082.908.057 1.271l1.38.013a.447.447 0 0 1 .443.445l-.002 1.483a.44.44 0 0 1-.28.41l-.392.16v.419l.43.223a.443.443 0 0 1 .242.394v1.233c0 .144-.07.279-.19.363l-1.103.777.978.3c.18.055.307.22.315.408 0 .028.023.674-.09 1.375-.063.401-.158.743-.286 1.023h1.627l.021.001V6.167H2.925v17.189h1.62z"/>
        <path fill="#898D8D" d="M23.669 21.647a.502.502 0 0 1 .142-.076.445.445 0 0 1-.172-.344l-.017-1.295.001-.042-.49.333a.448.448 0 0 1-.483.014l-.386-.23.004 3.349h.888c-.126-.554-.083-1.234.513-1.709M29.606 32.548a.446.446 0 0 1-.447-.445v-2.906c0-.217-.13-.485-.334-.684a1.235 1.235 0 0 0-.918-.355c-.686.011-1.098.538-1.154 1.06v2.885a.45.45 0 0 1-.447.445H23.65a.445.445 0 0 1-.447-.445v-2.906c0-.217-.132-.485-.334-.684a1.238 1.238 0 0 0-.918-.355c-.3.005-.569.112-.776.306l2.184 11.084c3.075-1.355 6.715-3.566 8.681-7h-2.433zM19.43 24.245h-2.492L13.87 39.831c-.005.02-.01.043-.018.062 2.132.87 3.862 1.313 4.344 1.464.49-.153 2.21-.593 4.327-1.454a.489.489 0 0 1-.022-.078l-3.071-15.58zM15.2 28.45a1.161 1.161 0 0 0-.76-.291h-.024c-.437 0-.726.192-.893.357-.204.198-.334.465-.334.682v2.907c0 .245-.2.445-.447.445h-2.658a.445.445 0 0 1-.447-.445V29.22c-.057-.523-.468-1.05-1.154-1.061h-.025c-.436 0-.726.192-.893.357-.203.198-.334.465-.334.682v2.907c0 .245-.2.445-.447.445H4.36c1.961 3.422 5.59 5.632 8.657 6.989l2.183-11.09z"/>
        <path fill="#898D8D" d="M33.45 24.245H20.34l.644 3.267c.288-.153.612-.239.95-.244a2.162 2.162 0 0 1 1.56.612c.377.367.601.86.601 1.316v2.462h1.763v-2.462l.001-.042a2.073 2.073 0 0 1 2.032-1.886 2.153 2.153 0 0 1 1.56.612c.378.367.602.86.602 1.316v2.462h2.442a10.73 10.73 0 0 0 .974-4.525v-2.89l-.02.002M6.337 31.66v-2.461c0-.458.225-.95.6-1.318.413-.404.969-.62 1.56-.613a2.075 2.075 0 0 1 2.035 1.93v2.462h1.763v-2.461c0-.458.224-.95.6-1.318.413-.404.968-.62 1.56-.613.33.007.648.088.93.236l.642-3.258h-13.1v2.886c0 1.69.363 3.193.975 4.528h2.435zM7.388 22.44h.725c.056.089.088.191.102.298l.012.181c-.002.156-.029.31-.062.437H5.627c-.367-.249-.55-1.239-.566-2.052l1.11-.341a.447.447 0 0 0 .316-.426v-.425c0-.145-.07-.28-.189-.363l-1.233-.87v-.731l.43-.223a.446.446 0 0 0 .24-.395v-.988a.447.447 0 0 0-.28-.414l-.392-.157v-.742l1.171-.01.557.908.004 1.266-.383 1.201a.448.448 0 0 0 .427.58h.338c.22 0 .406-.158.44-.374.033-.197.14-.765.24-1.02.076-.2.396-.626.597-.865a.446.446 0 0 0-.006-.578L6.911 14.58c-.03-.264-.085-.89.01-1.334.105-.483.441-1.097.561-1.293a.443.443 0 0 0 .061-.295l-.022-.16h.1l1.817 1.148a.457.457 0 0 0 .24.069h.498l-.03.664-.585.212a.445.445 0 0 0-.296.42l.004.457c0 .245.2.442.445.442l1.531.005.4.413a.448.448 0 0 0 .594.044s.695-.552.726-.615l.248-.52h.893V15.857s-1.632.556-1.768.622c-.106.054-.164.556-.145.678.018.12.012.168.188.298 0 0 .475.371.62.423l.474-.45.628.041v1.501l-.6.357-1.876-1.277a.449.449 0 0 0-.605.094l-.293.373a.445.445 0 0 0 .046.6l1.073 1-.01.813-1.078.477a.444.444 0 0 0-.264.406v.181c0 .247.199.445.447.445h1.295c.224.277.135.668.041.917H9.295c-.102-.106-.154-.293-.175-.503a2.565 2.565 0 0 0-.01-.171 3.267 3.267 0 0 1 .066-.74l.695-.886a.44.44 0 0 0 .094-.253l.02-.424a.447.447 0 0 0-.615-.433L8.25 20.4a.443.443 0 0 0-.273.347l-.066.445-.65.195a.444.444 0 0 0-.319.426v.18c0 .247.2.445.447.445M28.98 22.44h-.726a.768.768 0 0 0-.103.298 2.88 2.88 0 0 1-.01.181c.001.156.028.31.06.437h2.54c.366-.249.549-1.239.566-2.052l-1.111-.341a.448.448 0 0 1-.317-.426v-.425c0-.145.072-.28.189-.363l1.235-.87v-.731l-.43-.223a.447.447 0 0 1-.242-.395v-.988c0-.183.112-.345.28-.414l.393-.157v-.742l-1.17-.01-.558.908-.004 1.266.382 1.201a.448.448 0 0 1-.065.398.45.45 0 0 1-.36.182h-.339a.448.448 0 0 1-.442-.374c-.032-.197-.138-.765-.238-1.02-.077-.2-.395-.626-.596-.865a.444.444 0 0 1 .005-.578l1.537-1.756c.03-.264.085-.89-.01-1.334-.104-.483-.44-1.097-.56-1.293a.443.443 0 0 1-.062-.295l.022-.16h-.099l-1.818 1.148a.46.46 0 0 1-.24.069h-.498l.03.664.586.212a.444.444 0 0 1 .295.42l-.003.457a.445.445 0 0 1-.446.442l-1.53.005-.401.413a.448.448 0 0 1-.593.044s-.697-.552-.727-.615l-.249-.52h-.892V15.857s1.633.556 1.767.622c.107.054.166.556.146.678-.018.12-.011.168-.188.298 0 0-.474.371-.62.423l-.473-.45-.629.041.001 1.501.6.357 1.875-1.277a.447.447 0 0 1 .604.094l.295.373a.444.444 0 0 1-.047.6l-1.072 1 .01.813 1.077.477c.16.07.265.23.265.406v.181c0 .247-.2.445-.447.445H24.13c-.224.277-.136.668-.042.917h2.985c.102-.106.154-.293.175-.503 0-.056.005-.114.01-.171a3.267 3.267 0 0 0-.067-.74l-.695-.886a.451.451 0 0 1-.095-.253l-.02-.424a.447.447 0 0 1 .615-.433l1.123.455c.146.06.25.19.272.347l.067.445.65.195c.19.056.318.23.318.426v.18c0 .247-.2.445-.447.445M99.285 18.496v-.017c0-1.69 1.248-3.187 3.106-3.187 1.044 0 1.69.3 2.309.818l-.451.528c-.479-.412-1.008-.704-1.884-.704-1.372 0-2.354 1.153-2.354 2.527v.018c0 1.47.947 2.561 2.45 2.561.708 0 1.363-.272 1.788-.616v-1.532h-1.884v-.626h2.557v2.457a3.767 3.767 0 0 1-2.487.942c-1.947 0-3.15-1.409-3.15-3.169M107.211 18.496v-.017c0-1.7 1.283-3.187 3.169-3.187 1.884 0 3.15 1.47 3.15 3.169v.018c0 1.7-1.283 3.186-3.167 3.186-1.886 0-3.152-1.47-3.152-3.169m5.594 0v-.017c0-1.4-1.027-2.545-2.442-2.545-1.416 0-2.425 1.127-2.425 2.527v.018c0 1.4 1.026 2.544 2.442 2.544 1.416 0 2.425-1.126 2.425-2.527M116.034 15.396h2.636c.707 0 1.266.204 1.62.547.257.264.398.59.398.986v.018c0 .8-.496 1.214-.982 1.425.735.221 1.327.644 1.327 1.488v.019c0 1.056-.893 1.68-2.248 1.68h-2.751v-6.163zm3.945 1.63c0-.607-.486-1.004-1.37-1.004h-1.885v2.122h1.832c.84 0 1.423-.379 1.423-1.101v-.017zm-1.3 1.734h-1.955v2.175h2.08c.937 0 1.521-.414 1.521-1.1v-.019c0-.668-.566-1.056-1.646-1.056zM123.532 21.56h.7v-6.163h-.7zM127.062 15.396h4.476v.635h-3.777v2.104h3.38v.634h-3.38v2.157h3.821v.634h-4.52zM133.902 15.396h2.663c.761 0 1.373.23 1.761.617.301.3.477.731.477 1.215v.018c0 1.02-.708 1.62-1.68 1.796l1.902 2.518h-.858l-1.795-2.396H134.6v2.396h-.699v-6.164zm2.601 3.144c.929 0 1.592-.475 1.592-1.268v-.018c0-.756-.582-1.214-1.584-1.214h-1.91v2.5h1.902zM141.324 15.396h.654l3.903 4.94v-4.94h.682v6.164h-.558l-4-5.053v5.053h-.681zM149.064 18.496v-.017c0-1.7 1.283-3.187 3.168-3.187 1.884 0 3.15 1.47 3.15 3.169v.018c0 1.7-1.283 3.186-3.167 3.186-1.885 0-3.151-1.47-3.151-3.169m5.593 0v-.017c0-1.4-1.027-2.545-2.442-2.545-1.416 0-2.425 1.127-2.425 2.527v.018c0 1.4 1.026 2.544 2.442 2.544 1.416 0 2.425-1.126 2.425-2.527M161.108 15.396h2.15c1.947 0 3.291 1.33 3.291 3.065v.018c0 1.734-1.344 3.08-3.29 3.08h-2.15v-6.163zm.7.644v4.876h1.45c1.566 0 2.566-1.056 2.566-2.42v-.017c0-1.365-1-2.44-2.566-2.44h-1.45zM168.771 15.396h4.477v.635h-3.778v2.104h3.38v.634h-3.38v2.157h3.823v.634h-4.522zM178.86 15.396h.698v5.52h3.488v.644h-4.186zM187.337 15.353h.654l2.823 6.207h-.751l-.726-1.629h-3.372l-.734 1.63h-.717l2.823-6.208zm1.725 3.945l-1.407-3.134-1.415 3.134h2.822zM99.152 29.062v-.017c0-1.753 1.328-3.188 3.23-3.188 1.169 0 1.867.388 2.442.951l-.867.995c-.478-.432-.965-.695-1.584-.695-1.044 0-1.795.861-1.795 1.919v.018c0 1.056.734 1.935 1.795 1.935.708 0 1.142-.281 1.629-.72l.867.871c-.636.678-1.345 1.1-2.54 1.1-1.823 0-3.177-1.4-3.177-3.17M105.994 32.124h1.362v-6.162h-1.362zM108.929 29.485v-3.522h1.362v3.487c0 1.003.505 1.522 1.337 1.522.831 0 1.335-.501 1.335-1.48v-3.53h1.364v3.479c0 1.867-1.054 2.781-2.718 2.781-1.662 0-2.68-.925-2.68-2.737M115.876 25.962h2.416c1.947 0 3.291 1.33 3.291 3.065v.018c0 1.733-1.344 3.08-3.29 3.08h-2.417v-6.163zm2.416 4.94c1.115 0 1.867-.75 1.867-1.84v-.017c0-1.093-.752-1.858-1.867-1.858h-1.053v3.716h1.053zM124.602 25.919h1.257l2.655 6.207h-1.425l-.566-1.383h-2.62l-.566 1.383h-1.39l2.655-6.207zm1.434 3.627l-.822-2-.824 2h1.646zM129.5 25.962h2.416c1.946 0 3.291 1.33 3.291 3.065v.018c0 1.733-1.345 3.08-3.29 3.08H129.5v-6.163zm2.416 4.94c1.115 0 1.867-.75 1.867-1.84v-.017c0-1.093-.752-1.858-1.867-1.858h-1.053v3.716h1.053zM139.163 25.962h2.417c1.946 0 3.29 1.33 3.29 3.065v.018c0 1.733-1.344 3.08-3.29 3.08h-2.417v-6.163zm2.417 4.94c1.114 0 1.867-.75 1.867-1.84v-.017c0-1.093-.753-1.858-1.867-1.858h-1.054v3.716h1.054zM146.164 25.962h4.672v1.207h-3.319v1.25h2.92v1.207h-2.92v1.293h3.363v1.206h-4.716zM154.836 25.962h1.468l1.629 2.607 1.628-2.607h1.468v6.163h-1.353v-4.023l-1.743 2.633h-.036l-1.725-2.606v3.996h-1.336zM162.655 25.962h4.672v1.207h-3.319v1.25h2.92v1.207h-2.92v1.293h3.363v1.206h-4.716v-6.163zm2.592-2.042l1.159.503-1.132 1.056h-1.027l1-1.559zM170.406 28.992l-2.07-3.03h1.592l1.301 2 1.31-2h1.548l-2.07 3.012 2.159 3.152h-1.594l-1.388-2.113-1.398 2.113h-1.549zM175.22 32.124h1.363v-6.162h-1.362zM177.901 29.062v-.017c0-1.753 1.327-3.188 3.231-3.188 1.167 0 1.867.388 2.442.951l-.868.995c-.479-.432-.965-.695-1.584-.695-1.045 0-1.796.861-1.796 1.919v.018c0 1.056.734 1.935 1.796 1.935.708 0 1.142-.281 1.628-.72l.867.871c-.636.678-1.344 1.1-2.538 1.1-1.824 0-3.178-1.4-3.178-3.17M184.26 29.062v-.017c0-1.753 1.39-3.188 3.301-3.188 1.913 0 3.282 1.417 3.282 3.17v.018c0 1.751-1.387 3.186-3.299 3.186-1.911 0-3.283-1.417-3.283-3.17m5.16 0v-.016c0-1.057-.78-1.937-1.877-1.937-1.098 0-1.858.861-1.858 1.919v.018c0 1.056.777 1.935 1.875 1.935 1.098 0 1.86-.86 1.86-1.918"/>
        <path fill="#00B140" d="M69.384 41.328c-1.745 0-3.165 1.394-3.165 3.108 0 1.713 1.42 3.107 3.165 3.107 1.744 0 3.163-1.394 3.163-3.107 0-1.714-1.419-3.108-3.163-3.108m0 4.778a1.668 1.668 0 0 1-1.664-1.67 1.67 1.67 0 0 1 1.664-1.672c.916 0 1.663.75 1.663 1.672 0 .921-.747 1.67-1.663 1.67"/>
    </g>
</svg>
