<?xml version="1.0" encoding="UTF-8" standalone="no"?>
<!-- Generator: Adobe Illustrator 24.1.2, SVG Export Plug-In . SVG Version: 6.00 Build 0)  -->

<svg
   xmlns:dc="http://purl.org/dc/elements/1.1/"
   xmlns:cc="http://creativecommons.org/ns#"
   xmlns:rdf="http://www.w3.org/1999/02/22-rdf-syntax-ns#"
   xmlns:svg="http://www.w3.org/2000/svg"
   xmlns="http://www.w3.org/2000/svg"
   xmlns:xlink="http://www.w3.org/1999/xlink"
   xmlns:sodipodi="http://sodipodi.sourceforge.net/DTD/sodipodi-0.dtd"
   xmlns:inkscape="http://www.inkscape.org/namespaces/inkscape"
   version="1.1"
   id="Layer_1"
   x="0px"
   y="0px"
   viewBox="0 0 629 608.5"
   xml:space="preserve"
   sodipodi:docname="patroncdmx.svg"
   inkscape:version="0.92.4 (unknown)"
   width="629"
   height="608.5"><metadata
   id="metadata124"><rdf:RDF><cc:Work
       rdf:about=""><dc:format>image/svg+xml</dc:format><dc:type
         rdf:resource="http://purl.org/dc/dcmitype/StillImage" /><dc:title></dc:title></cc:Work></rdf:RDF></metadata><defs
   id="defs122"><clipPath
     clipPathUnits="userSpaceOnUse"
     id="clipPath1311"><path
       style="opacity:1;fill:#e9afaf;fill-opacity:1;stroke:none;stroke-width:1.00297427;stroke-opacity:1"
       d="M 0,-0.91870117 H 629.93149 V 608.5 H 0 Z"
       id="path1313"
       inkscape:connector-curvature="0" /></clipPath></defs><sodipodi:namedview
   pagecolor="#ffffff"
   bordercolor="#666666"
   borderopacity="1"
   objecttolerance="10"
   gridtolerance="10"
   guidetolerance="10"
   inkscape:pageopacity="0"
   inkscape:pageshadow="2"
   inkscape:window-width="1366"
   inkscape:window-height="713"
   id="namedview120"
   showgrid="false"
   inkscape:zoom="0.7756779"
   inkscape:cx="272.94071"
   inkscape:cy="292.84242"
   inkscape:window-x="0"
   inkscape:window-y="27"
   inkscape:window-maximized="1"
   inkscape:current-layer="Layer_1" />
<style
   type="text/css"
   id="style2">
	.st0{clip-path:url(#SVGID_2_);}
	.st1{fill:#999999;}
</style>
<g
   id="g117"
   style="opacity:1;fill:#004519;fill-opacity:0.12429379"
   clip-path="url(#clipPath1311)">
	<defs
   id="defs5">
		<rect
   id="SVGID_1_"
   y="0"
   width="630"
   height="608.5"
   x="0" />
	</defs>
	<clipPath
   id="SVGID_2_">
		<use
   xlink:href="#SVGID_1_"
   style="overflow:visible"
   id="use7"
   x="0"
   y="0"
   width="100%"
   height="100%" />
	</clipPath>
	<g
   class="st0"
   clip-path="url(#SVGID_2_)"
   id="g115"
   style="fill:#004519;fill-opacity:0.12429379">
		<path
   id="XMLID_17343_"
   class="st1"
   d="m 31.82,-64.96 c -0.87,-1.15 -2.25,-1.9 -3.8,-1.91 l -0.12,-0.01 -17.28,-0.1 c -3.72,-0.18 -7.48,1.33 -10.04,4.41 l -48.52,62.28 10.86,13.69 c 0,0 0.95,1.62 2.19,0 l 33.8,-44.26 10.3,-12.92 0.05,-0.06 c 0.89,-1.08 2.24,-1.77 3.75,-1.76 2.66,0.02 4.79,2.19 4.77,4.85 -0.01,1.15 -0.42,2.2 -1.09,3.02 l -0.05,0.05 -10.94,13.49 c -1.62,2 0,3.54 0,3.54 L 16.09,-7.6 46.02,-45.79 31.89,-64.88 Z"
   style="fill:#004519;fill-opacity:0.12429379"
   inkscape:connector-curvature="0" />
		<path
   id="XMLID_17341_"
   class="st1"
   d="m 101.72,-64.96 c -0.87,-1.15 -2.25,-1.9 -3.8,-1.91 l -0.12,-0.01 -17.28,-0.1 c -3.72,-0.18 -7.48,1.33 -10.04,4.41 L 21.96,-0.29 32.82,13.4 c 0,0 0.95,1.62 2.19,0 l 33.8,-44.26 10.29,-12.92 0.05,-0.06 c 0.89,-1.08 2.24,-1.77 3.75,-1.76 2.66,0.02 4.79,2.19 4.77,4.85 -0.01,1.15 -0.42,2.2 -1.09,3.02 l -0.05,0.05 -10.94,13.49 c -1.62,2 0,3.54 0,3.54 l 10.4,13.05 29.93,-38.19 -14.13,-19.09 z"
   style="fill:#004519;fill-opacity:0.12429379"
   inkscape:connector-curvature="0" />
		<path
   id="XMLID_17339_"
   class="st1"
   d="m 171.61,-64.96 c -0.87,-1.15 -2.25,-1.9 -3.81,-1.91 l -0.12,-0.01 -17.28,-0.1 c -3.72,-0.18 -7.48,1.33 -10.04,4.41 L 91.85,-0.29 102.71,13.4 c 0,0 0.95,1.62 2.19,0 l 33.8,-44.26 10.29,-12.92 0.05,-0.06 c 0.89,-1.08 2.24,-1.77 3.75,-1.76 2.66,0.02 4.79,2.19 4.77,4.85 -0.01,1.15 -0.42,2.2 -1.09,3.02 l -0.05,0.05 -10.94,13.49 c -1.62,2 0,3.54 0,3.54 l 10.4,13.05 29.93,-38.19 -14.13,-19.09 z"
   style="fill:#004519;fill-opacity:0.12429379"
   inkscape:connector-curvature="0" />
		<path
   id="XMLID_17337_"
   class="st1"
   d="m 241.51,-64.96 c -0.87,-1.15 -2.25,-1.9 -3.8,-1.91 l -0.12,-0.01 -17.28,-0.1 c -3.72,-0.18 -7.48,1.33 -10.04,4.41 L 161.74,-0.29 172.6,13.4 c 0,0 0.95,1.62 2.19,0 l 33.8,-44.26 10.29,-12.92 0.05,-0.06 c 0.89,-1.08 2.24,-1.77 3.75,-1.76 2.66,0.02 4.79,2.19 4.77,4.85 -0.01,1.15 -0.42,2.2 -1.09,3.02 l -0.05,0.05 -10.94,13.49 c -1.62,2 0,3.54 0,3.54 l 10.4,13.05 29.93,-38.19 -14.13,-19.09 z"
   style="fill:#004519;fill-opacity:0.12429379"
   inkscape:connector-curvature="0" />
		<path
   id="XMLID_17325_"
   class="st1"
   d="M 15.98,3.19 C 15.11,2.04 13.73,1.29 12.18,1.28 L 12.06,1.27 -5.22,1.17 C -8.94,0.99 -12.7,2.5 -15.26,5.58 l -48.52,62.27 10.86,13.69 c 0,0 0.95,1.62 2.19,0 l 33.8,-44.26 10.29,-12.92 0.05,-0.06 c 0.89,-1.08 2.24,-1.77 3.75,-1.76 2.66,0.02 4.79,2.19 4.77,4.85 -0.01,1.15 -0.42,2.2 -1.09,3.02 l -0.05,0.05 -10.94,13.49 c -1.62,2 0,3.54 0,3.54 L 0.25,60.54 30.18,22.35 16.04,3.26 Z"
   style="fill:#004519;fill-opacity:0.12429379"
   inkscape:connector-curvature="0" />
		<path
   id="XMLID_17323_"
   class="st1"
   d="M 85.87,3.19 C 85,2.04 83.62,1.29 82.07,1.28 L 81.95,1.27 64.67,1.17 C 60.95,0.99 57.19,2.5 54.63,5.58 L 6.11,67.85 16.97,81.54 c 0,0 0.95,1.62 2.19,0 L 52.96,37.28 63.25,24.36 63.3,24.3 c 0.89,-1.08 2.24,-1.77 3.75,-1.76 2.66,0.02 4.79,2.19 4.77,4.85 -0.01,1.15 -0.42,2.2 -1.09,3.02 l -0.05,0.05 -10.94,13.49 c -1.62,2 0,3.54 0,3.54 L 70.14,60.54 100.07,22.35 85.94,3.26 Z"
   style="fill:#004519;fill-opacity:0.12429379"
   inkscape:connector-curvature="0" />
		<path
   id="XMLID_17321_"
   class="st1"
   d="m 155.76,3.19 c -0.87,-1.15 -2.25,-1.9 -3.8,-1.91 L 151.84,1.27 134.56,1.17 C 130.84,0.99 127.08,2.5 124.52,5.58 L 76,67.85 86.86,81.54 c 0,0 0.95,1.62 2.19,0 l 33.8,-44.26 10.29,-12.92 0.05,-0.06 c 0.89,-1.08 2.24,-1.77 3.75,-1.76 2.66,0.02 4.79,2.19 4.77,4.85 -0.01,1.15 -0.42,2.2 -1.09,3.02 l -0.05,0.05 -10.94,13.49 c -1.62,2 0,3.54 0,3.54 l 10.4,13.05 29.93,-38.19 -14.13,-19.09 z"
   style="fill:#004519;fill-opacity:0.12429379"
   inkscape:connector-curvature="0" />
		<path
   id="XMLID_17319_"
   class="st1"
   d="m 225.66,3.19 c -0.87,-1.15 -2.25,-1.9 -3.8,-1.91 l -0.12,-0.01 -17.28,-0.1 c -3.72,-0.18 -7.48,1.33 -10.04,4.41 l -48.52,62.27 10.86,13.69 c 0,0 0.95,1.62 2.19,0 l 33.8,-44.26 10.29,-12.92 0.05,-0.06 c 0.89,-1.08 2.24,-1.77 3.75,-1.76 2.66,0.02 4.79,2.19 4.77,4.85 -0.01,1.15 -0.42,2.2 -1.09,3.02 l -0.05,0.05 -10.94,13.49 c -1.62,2 0,3.54 0,3.54 l 10.4,13.05 29.93,-38.19 -14.14,-19.09 z"
   style="fill:#004519;fill-opacity:0.12429379"
   inkscape:connector-curvature="0" />
		<path
   id="XMLID_17307_"
   class="st1"
   d="M -15.06,98.6 -26,112.1 c -1.62,2 0,3.54 0,3.54 L -15.6,128.69 14.33,90.5 0.19,71.41 0.12,71.33 c -0.87,-1.15 -2.25,-1.9 -3.8,-1.91 l -0.12,-0.01 -17.28,-0.1 c -3.72,-0.18 -7.48,1.33 -10.04,4.41 l -48.51,62.28 10.86,13.69 c 0,0 0.95,1.62 2.19,0 l 33.8,-44.26 10.29,-12.92 0.05,-0.06 c 0.89,-1.08 2.24,-1.77 3.75,-1.76 2.66,0.02 4.79,2.19 4.77,4.85 -0.01,1.15 -0.42,2.2 -1.09,3.02 z"
   style="fill:#004519;fill-opacity:0.12429379"
   inkscape:connector-curvature="0" />
		<path
   id="XMLID_17305_"
   class="st1"
   d="m 54.83,98.6 -10.94,13.5 c -1.62,2 0,3.54 0,3.54 L 54.29,128.69 84.22,90.5 70.09,71.41 70.02,71.33 c -0.87,-1.15 -2.25,-1.9 -3.8,-1.91 L 66.1,69.41 48.82,69.31 C 45.1,69.13 41.34,70.64 38.78,73.72 L -9.74,136 1.12,149.69 c 0,0 0.95,1.62 2.19,0 L 37.11,105.43 47.4,92.5 47.45,92.44 c 0.89,-1.08 2.24,-1.77 3.75,-1.76 2.66,0.02 4.79,2.19 4.77,4.85 -0.01,1.15 -0.42,2.2 -1.09,3.02 z"
   style="fill:#004519;fill-opacity:0.12429379"
   inkscape:connector-curvature="0" />
		<path
   id="XMLID_17303_"
   class="st1"
   d="m 124.73,98.6 -10.94,13.49 c -1.62,2 0,3.54 0,3.54 l 10.4,13.05 29.93,-38.19 -14.13,-19.09 -0.07,-0.08 c -0.87,-1.15 -2.25,-1.9 -3.8,-1.91 L 136,69.4 118.72,69.3 c -3.72,-0.18 -7.48,1.33 -10.04,4.41 L 60.15,136 71.01,149.69 c 0,0 0.95,1.62 2.19,0 l 33.8,-44.26 10.3,-12.93 0.05,-0.06 c 0.89,-1.08 2.24,-1.77 3.75,-1.76 2.66,0.02 4.79,2.19 4.77,4.85 -0.01,1.15 -0.42,2.2 -1.09,3.02 z"
   style="fill:#004519;fill-opacity:0.12429379"
   inkscape:connector-curvature="0" />
		<path
   id="XMLID_17301_"
   class="st1"
   d="m 194.62,98.6 -10.94,13.49 c -1.62,2 0,3.54 0,3.54 l 10.4,13.05 29.93,-38.19 -14.13,-19.09 -0.07,-0.08 c -0.87,-1.15 -2.25,-1.9 -3.8,-1.91 l -0.12,-0.01 -17.28,-0.1 c -3.72,-0.18 -7.48,1.33 -10.04,4.41 l -48.52,62.29 10.86,13.69 c 0,0 0.95,1.62 2.19,0 l 33.8,-44.26 10.29,-12.92 0.05,-0.06 c 0.89,-1.08 2.24,-1.77 3.75,-1.76 2.66,0.02 4.79,2.19 4.77,4.85 -0.01,1.15 -0.42,2.2 -1.09,3.02 z"
   style="fill:#004519;fill-opacity:0.12429379"
   inkscape:connector-curvature="0" />
		<path
   id="XMLID_17287_"
   class="st1"
   d="m 38.99,166.75 -10.94,13.49 c -1.62,2 0,3.54 0,3.54 l 10.4,13.05 29.93,-38.19 -14.13,-19.09 -0.07,-0.08 c -0.87,-1.15 -2.25,-1.9 -3.8,-1.91 l -0.12,-0.01 -17.28,-0.1 c -3.72,-0.18 -7.48,1.33 -10.04,4.41 l -48.52,62.27 10.86,13.69 c 0,0 0.95,1.62 2.19,0 l 33.8,-44.26 10.29,-12.92 0.05,-0.06 c 0.89,-1.08 2.24,-1.77 3.75,-1.76 2.66,0.02 4.79,2.19 4.77,4.85 -0.01,1.15 -0.42,2.2 -1.09,3.02 z"
   style="fill:#004519;fill-opacity:0.12429379"
   inkscape:connector-curvature="0" />
		<path
   id="XMLID_17285_"
   class="st1"
   d="m 108.88,166.75 -10.94,13.49 c -1.62,2 0,3.54 0,3.54 l 10.4,13.05 29.93,-38.19 -14.13,-19.09 -0.07,-0.08 c -0.87,-1.15 -2.25,-1.9 -3.8,-1.91 l -0.12,-0.01 -17.28,-0.1 c -3.72,-0.18 -7.48,1.33 -10.04,4.41 l -48.53,62.28 10.86,13.69 c 0,0 0.95,1.62 2.19,0 l 33.8,-44.26 10.29,-12.92 0.05,-0.06 c 0.89,-1.08 2.24,-1.77 3.75,-1.76 2.66,0.02 4.79,2.19 4.77,4.85 -0.01,1.15 -0.42,2.2 -1.09,3.02 z"
   style="fill:#004519;fill-opacity:0.12429379"
   inkscape:connector-curvature="0" />
		<path
   id="XMLID_17283_"
   class="st1"
   d="m 178.77,166.75 -10.94,13.49 c -1.62,2 0,3.54 0,3.54 l 10.4,13.05 29.93,-38.19 -14.13,-19.09 -0.07,-0.08 c -0.87,-1.15 -2.25,-1.9 -3.8,-1.91 l -0.12,-0.01 -17.28,-0.1 c -3.72,-0.18 -7.48,1.33 -10.04,4.41 l -48.52,62.27 10.86,13.69 c 0,0 0.95,1.62 2.19,0 l 33.8,-44.26 10.29,-12.92 0.05,-0.06 c 0.89,-1.08 2.24,-1.77 3.75,-1.76 2.66,0.02 4.79,2.19 4.77,4.85 -0.01,1.15 -0.42,2.2 -1.09,3.02 z"
   style="fill:#004519;fill-opacity:0.12429379"
   inkscape:connector-curvature="0" />
		<path
   id="XMLID_17269_"
   class="st1"
   d="M 23.14,234.89 12.2,248.38 c -1.62,2 0,3.54 0,3.54 l 10.4,13.05 29.93,-38.19 -14.13,-19.09 -0.07,-0.08 c -0.87,-1.15 -2.25,-1.9 -3.8,-1.91 l -0.12,-0.01 -17.28,-0.1 C 13.41,205.41 9.65,206.92 7.09,210 l -48.52,62.27 10.86,13.69 c 0,0 0.95,1.62 2.19,0 l 33.8,-44.26 10.29,-12.92 0.05,-0.06 c 0.89,-1.08 2.24,-1.77 3.75,-1.76 2.66,0.02 4.79,2.19 4.77,4.85 -0.01,1.15 -0.42,2.2 -1.09,3.02 z"
   style="fill:#004519;fill-opacity:0.12429379"
   inkscape:connector-curvature="0" />
		<path
   id="XMLID_17267_"
   class="st1"
   d="m 93.03,234.89 -10.94,13.49 c -1.62,2 0,3.54 0,3.54 l 10.4,13.05 29.93,-38.19 -14.13,-19.09 -0.07,-0.08 c -0.87,-1.15 -2.25,-1.9 -3.8,-1.91 l -0.12,-0.01 -17.28,-0.1 c -3.72,-0.18 -7.48,1.33 -10.04,4.41 l -48.52,62.27 10.86,13.69 c 0,0 0.95,1.62 2.19,0 l 33.8,-44.26 10.29,-12.92 0.05,-0.06 c 0.89,-1.08 2.24,-1.77 3.75,-1.76 2.66,0.02 4.79,2.19 4.77,4.85 -0.01,1.15 -0.42,2.2 -1.09,3.02 z"
   style="fill:#004519;fill-opacity:0.12429379"
   inkscape:connector-curvature="0" />
		<path
   id="XMLID_17265_"
   class="st1"
   d="m 162.93,234.89 -10.94,13.49 c -1.62,2 0,3.54 0,3.54 l 10.4,13.05 29.93,-38.19 -14.13,-19.09 -0.07,-0.08 c -0.87,-1.15 -2.25,-1.9 -3.8,-1.91 l -0.12,-0.01 -17.28,-0.1 c -3.72,-0.18 -7.48,1.33 -10.04,4.41 l -48.52,62.27 10.86,13.69 c 0,0 0.95,1.62 2.19,0 l 33.8,-44.26 10.29,-12.92 0.05,-0.06 c 0.89,-1.08 2.24,-1.77 3.75,-1.76 2.66,0.02 4.79,2.19 4.77,4.85 -0.01,1.15 -0.42,2.2 -1.09,3.02 z"
   style="fill:#004519;fill-opacity:0.12429379"
   inkscape:connector-curvature="0" />
		<path
   id="XMLID_17253_"
   class="st1"
   d="m 7.29,303.03 -10.94,13.49 c -1.62,2 0,3.54 0,3.54 l 10.4,13.05 29.93,-38.19 -14.13,-19.09 -0.07,-0.08 c -0.87,-1.15 -2.25,-1.9 -3.8,-1.91 l -0.12,-0.01 -17.28,-0.1 c -3.72,-0.18 -7.48,1.33 -10.04,4.41 l -48.52,62.27 10.86,13.69 c 0,0 0.95,1.62 2.19,0 l 33.8,-44.26 10.29,-12.92 0.05,-0.06 c 0.89,-1.08 2.24,-1.77 3.75,-1.76 2.66,0.02 4.79,2.19 4.77,4.85 -0.01,1.15 -0.42,2.2 -1.09,3.02 z"
   style="fill:#004519;fill-opacity:0.12429379"
   inkscape:connector-curvature="0" />
		<path
   id="XMLID_17251_"
   class="st1"
   d="m 77.18,303.03 -10.94,13.49 c -1.62,2 0,3.54 0,3.54 l 10.4,13.05 29.93,-38.19 -14.13,-19.09 -0.07,-0.08 c -0.87,-1.15 -2.25,-1.9 -3.81,-1.91 l -0.12,-0.01 -17.28,-0.1 c -3.72,-0.18 -7.48,1.33 -10.04,4.41 L 12.6,340.41 23.46,354.1 c 0,0 0.95,1.62 2.19,0 l 33.8,-44.26 10.29,-12.92 0.05,-0.06 c 0.89,-1.08 2.24,-1.77 3.75,-1.76 2.66,0.02 4.79,2.19 4.77,4.85 -0.01,1.15 -0.42,2.2 -1.09,3.02 z"
   style="fill:#004519;fill-opacity:0.12429379"
   inkscape:connector-curvature="0" />
		<path
   id="XMLID_17249_"
   class="st1"
   d="m 147.08,303.03 -10.94,13.49 c -1.62,2 0,3.54 0,3.54 l 10.4,13.05 29.93,-38.19 -14.13,-19.09 -0.07,-0.08 c -0.87,-1.15 -2.25,-1.9 -3.8,-1.91 l -0.12,-0.01 -17.28,-0.1 c -3.72,-0.18 -7.48,1.33 -10.04,4.41 l -48.53,62.28 10.86,13.69 c 0,0 0.95,1.62 2.19,0 l 33.8,-44.26 10.29,-12.92 0.05,-0.06 c 0.89,-1.08 2.24,-1.77 3.75,-1.76 2.66,0.02 4.79,2.19 4.77,4.85 -0.01,1.15 -0.42,2.2 -1.09,3.02 z"
   style="fill:#004519;fill-opacity:0.12429379"
   inkscape:connector-curvature="0" />
		<path
   id="XMLID_17237_"
   class="st1"
   d="m -8.56,371.17 -10.94,13.49 c -1.62,2 0,3.54 0,3.54 L -9.1,401.25 20.83,363.06 6.69,343.98 6.62,343.9 C 5.75,342.75 4.37,342 2.82,341.99 l -0.12,-0.01 -17.28,-0.1 c -3.72,-0.18 -7.48,1.33 -10.04,4.41 l -48.52,62.27 10.86,13.69 c 0,0 0.95,1.62 2.19,0 l 33.8,-44.26 10.29,-12.92 0.05,-0.06 c 0.89,-1.08 2.24,-1.77 3.75,-1.76 2.66,0.02 4.79,2.19 4.77,4.85 -0.01,1.15 -0.42,2.2 -1.09,3.02 z"
   style="fill:#004519;fill-opacity:0.12429379"
   inkscape:connector-curvature="0" />
		<path
   id="XMLID_17235_"
   class="st1"
   d="m 61.33,371.17 -10.94,13.49 c -1.62,2 0,3.54 0,3.54 l 10.4,13.05 29.93,-38.19 -14.13,-19.09 -0.07,-0.08 c -0.87,-1.15 -2.25,-1.9 -3.8,-1.91 l -0.12,-0.01 -17.28,-0.1 c -3.72,-0.18 -7.48,1.33 -10.04,4.41 l -48.52,62.27 10.86,13.69 c 0,0 0.95,1.62 2.19,0 L 43.61,378 53.9,365.08 l 0.05,-0.06 c 0.89,-1.08 2.24,-1.77 3.75,-1.76 2.66,0.02 4.79,2.19 4.77,4.85 -0.01,1.15 -0.42,2.2 -1.09,3.02 z"
   style="fill:#004519;fill-opacity:0.12429379"
   inkscape:connector-curvature="0" />
		<path
   id="XMLID_17233_"
   class="st1"
   d="m 131.23,371.17 -10.94,13.49 c -1.62,2 0,3.54 0,3.54 l 10.4,13.05 29.93,-38.19 -14.13,-19.09 -0.07,-0.08 c -0.87,-1.15 -2.25,-1.9 -3.8,-1.91 l -0.12,-0.01 -17.28,-0.1 c -3.72,-0.18 -7.48,1.33 -10.04,4.41 l -48.52,62.27 10.86,13.69 c 0,0 0.95,1.62 2.19,0 l 33.8,-44.26 10.29,-12.92 0.05,-0.06 c 0.89,-1.08 2.24,-1.77 3.75,-1.76 2.66,0.02 4.79,2.19 4.77,4.85 -0.01,1.15 -0.42,2.2 -1.09,3.02 z"
   style="fill:#004519;fill-opacity:0.12429379"
   inkscape:connector-curvature="0" />
		<path
   id="XMLID_17221_"
   class="st1"
   d="m -24.41,439.32 -10.94,13.49 c -1.62,2 0,3.54 0,3.54 l 10.4,13.05 29.93,-38.19 -14.13,-19.09 -0.07,-0.08 c -0.87,-1.15 -2.25,-1.9 -3.8,-1.91 l -0.12,-0.01 -17.28,-0.1 c -3.72,-0.18 -7.48,1.33 -10.04,4.41 l -48.52,62.27 10.86,13.69 c 0,0 0.95,1.62 2.19,0 l 33.8,-44.26 10.29,-12.92 0.05,-0.06 c 0.89,-1.08 2.24,-1.77 3.75,-1.76 2.66,0.02 4.79,2.19 4.77,4.85 -0.01,1.15 -0.42,2.2 -1.09,3.02 z"
   style="fill:#004519;fill-opacity:0.12429379"
   inkscape:connector-curvature="0" />
		<path
   id="XMLID_17219_"
   class="st1"
   d="m 45.49,439.32 -10.94,13.49 c -1.62,2 0,3.54 0,3.54 l 10.4,13.05 29.93,-38.19 -14.13,-19.09 -0.07,-0.08 c -0.87,-1.15 -2.25,-1.9 -3.8,-1.91 l -0.12,-0.01 -17.28,-0.1 c -3.72,-0.18 -7.48,1.33 -10.04,4.41 l -48.52,62.27 10.86,13.69 c 0,0 0.95,1.62 2.19,0 l 33.8,-44.26 10.29,-12.92 0.05,-0.06 c 0.89,-1.08 2.24,-1.77 3.75,-1.76 2.66,0.02 4.79,2.19 4.77,4.85 -0.01,1.15 -0.42,2.2 -1.09,3.02 z"
   style="fill:#004519;fill-opacity:0.12429379"
   inkscape:connector-curvature="0" />
		<path
   id="XMLID_17217_"
   class="st1"
   d="m 115.38,439.32 -10.94,13.49 c -1.62,2 0,3.54 0,3.54 l 10.4,13.05 29.93,-38.19 -14.13,-19.09 -0.07,-0.08 c -0.87,-1.15 -2.25,-1.9 -3.8,-1.91 l -0.12,-0.01 -17.28,-0.1 c -3.72,-0.18 -7.48,1.33 -10.04,4.41 L 50.8,476.71 61.66,490.4 c 0,0 0.95,1.62 2.19,0 l 33.8,-44.26 10.29,-12.92 0.05,-0.06 c 0.89,-1.08 2.24,-1.77 3.75,-1.76 2.66,0.02 4.79,2.19 4.77,4.85 -0.01,1.15 -0.42,2.2 -1.09,3.02 z"
   style="fill:#004519;fill-opacity:0.12429379"
   inkscape:connector-curvature="0" />
		<path
   id="XMLID_17203_"
   class="st1"
   d="M 29.64,507.46 18.7,520.95 c -1.62,2 0,3.54 0,3.54 l 10.4,13.05 29.93,-38.19 -14.13,-19.09 -0.07,-0.08 c -0.87,-1.15 -2.25,-1.9 -3.8,-1.91 l -0.12,-0.01 -17.28,-0.1 c -3.72,-0.18 -7.48,1.33 -10.04,4.41 l -48.52,62.27 10.86,13.69 c 0,0 0.95,1.62 2.19,0 l 33.8,-44.26 10.29,-12.92 0.05,-0.06 c 0.89,-1.08 2.24,-1.77 3.75,-1.76 2.66,0.02 4.79,2.19 4.77,4.85 -0.01,1.15 -0.42,2.2 -1.09,3.02 z"
   style="fill:#004519;fill-opacity:0.12429379"
   inkscape:connector-curvature="0" />
		<path
   id="XMLID_17201_"
   class="st1"
   d="m 99.53,507.46 -10.94,13.49 c -1.62,2 0,3.54 0,3.54 l 10.4,13.05 29.93,-38.19 -14.13,-19.09 -0.07,-0.08 c -0.87,-1.15 -2.25,-1.9 -3.8,-1.91 l -0.12,-0.01 -17.28,-0.1 c -3.72,-0.18 -7.48,1.33 -10.04,4.41 l -48.52,62.27 10.86,13.69 c 0,0 0.95,1.62 2.19,0 l 33.8,-44.26 10.29,-12.92 0.05,-0.06 c 0.89,-1.08 2.24,-1.77 3.75,-1.76 2.66,0.02 4.79,2.19 4.77,4.85 -0.01,1.15 -0.42,2.2 -1.09,3.02 z"
   style="fill:#004519;fill-opacity:0.12429379"
   inkscape:connector-curvature="0" />
		<path
   id="XMLID_17189_"
   class="st1"
   d="M 13.23,575.6 2.28,589.1 c -1.62,2 0,3.54 0,3.54 l 10.4,13.05 29.93,-38.19 -14.13,-19.09 -0.07,-0.08 c -0.87,-1.15 -2.25,-1.9 -3.8,-1.91 l -0.12,-0.01 -17.28,-0.1 c -3.72,-0.18 -7.48,1.33 -10.04,4.41 l -48.52,62.28 10.86,13.69 c 0,0 0.95,1.62 2.19,0 L -4.5,582.43 5.8,569.5 5.85,569.44 c 0.89,-1.08 2.24,-1.77 3.75,-1.76 2.66,0.02 4.79,2.19 4.77,4.85 -0.01,1.15 -0.42,2.2 -1.09,3.02 z"
   style="fill:#004519;fill-opacity:0.12429379"
   inkscape:connector-curvature="0" />
		<path
   id="XMLID_17187_"
   class="st1"
   d="m 83.13,575.6 -10.95,13.5 c -1.62,2 0,3.54 0,3.54 l 10.4,13.05 29.93,-38.19 -14.13,-19.09 -0.07,-0.08 c -0.87,-1.15 -2.25,-1.9 -3.8,-1.91 l -0.12,-0.01 -17.28,-0.1 c -3.72,-0.18 -7.48,1.33 -10.04,4.41 L 18.55,613 29.41,626.69 c 0,0 0.95,1.62 2.19,0 l 33.8,-44.26 10.3,-12.93 0.05,-0.06 c 0.89,-1.08 2.24,-1.77 3.75,-1.76 2.66,0.02 4.79,2.19 4.77,4.85 -0.01,1.15 -0.42,2.2 -1.09,3.02 z"
   style="fill:#004519;fill-opacity:0.12429379"
   inkscape:connector-curvature="0" />
		<path
   id="XMLID_16799_"
   class="st1"
   d="m 312.19,-64.96 c -0.87,-1.15 -2.25,-1.9 -3.8,-1.91 l -0.12,-0.01 -17.28,-0.1 c -3.72,-0.18 -7.48,1.33 -10.04,4.41 l -48.52,62.28 10.86,13.69 c 0,0 0.95,1.62 2.19,0 l 33.8,-44.26 10.29,-12.92 0.05,-0.06 c 0.89,-1.08 2.24,-1.77 3.75,-1.76 2.66,0.02 4.79,2.19 4.77,4.85 -0.01,1.15 -0.42,2.2 -1.09,3.02 l -0.05,0.05 -10.94,13.49 c -1.62,2 0,3.54 0,3.54 l 10.4,13.05 29.93,-38.19 -14.13,-19.09 z"
   style="fill:#004519;fill-opacity:0.12429379"
   inkscape:connector-curvature="0" />
		<path
   id="XMLID_16797_"
   class="st1"
   d="m 382.08,-64.96 c -0.87,-1.15 -2.25,-1.9 -3.8,-1.91 l -0.12,-0.01 -17.28,-0.1 c -3.72,-0.18 -7.48,1.33 -10.04,4.41 l -48.52,62.28 10.86,13.69 c 0,0 0.95,1.62 2.19,0 l 33.8,-44.26 10.29,-12.92 0.05,-0.06 c 0.89,-1.08 2.24,-1.77 3.75,-1.76 2.66,0.02 4.79,2.19 4.77,4.85 -0.01,1.15 -0.42,2.2 -1.09,3.02 l -0.05,0.05 -10.94,13.49 c -1.62,2 0,3.54 0,3.54 l 10.4,13.05 29.93,-38.19 -14.13,-19.09 z"
   style="fill:#004519;fill-opacity:0.12429379"
   inkscape:connector-curvature="0" />
		<path
   id="XMLID_16795_"
   class="st1"
   d="m 451.97,-64.96 c -0.87,-1.15 -2.25,-1.9 -3.8,-1.91 l -0.12,-0.01 -17.28,-0.1 c -3.72,-0.18 -7.48,1.33 -10.04,4.41 l -48.52,62.28 10.86,13.69 c 0,0 0.95,1.62 2.19,0 l 33.8,-44.26 10.29,-12.92 0.05,-0.06 c 0.89,-1.08 2.24,-1.77 3.75,-1.76 2.66,0.02 4.79,2.19 4.77,4.85 -0.01,1.15 -0.42,2.2 -1.09,3.02 l -0.05,0.05 -10.94,13.49 c -1.62,2 0,3.54 0,3.54 l 10.4,13.05 29.93,-38.19 -14.13,-19.09 z"
   style="fill:#004519;fill-opacity:0.12429379"
   inkscape:connector-curvature="0" />
		<path
   id="XMLID_16793_"
   class="st1"
   d="m 521.87,-64.96 c -0.87,-1.15 -2.25,-1.9 -3.8,-1.91 l -0.12,-0.01 -17.28,-0.1 c -3.72,-0.18 -7.48,1.33 -10.04,4.41 l -48.52,62.28 10.86,13.69 c 0,0 0.95,1.62 2.19,0 l 33.8,-44.26 10.29,-12.92 0.05,-0.06 c 0.89,-1.08 2.24,-1.77 3.75,-1.76 2.66,0.02 4.79,2.19 4.77,4.85 -0.01,1.15 -0.42,2.2 -1.09,3.02 l -0.05,0.05 -10.94,13.49 c -1.62,2 0,3.54 0,3.54 l 10.4,13.05 29.93,-38.19 -14.13,-19.09 z"
   style="fill:#004519;fill-opacity:0.12429379"
   inkscape:connector-curvature="0" />
		<path
   id="XMLID_16791_"
   class="st1"
   d="m 591.76,-64.96 c -0.87,-1.15 -2.25,-1.9 -3.8,-1.91 l -0.12,-0.01 -17.28,-0.1 c -3.72,-0.18 -7.48,1.33 -10.04,4.41 L 512,-0.29 522.86,13.4 c 0,0 0.95,1.62 2.19,0 l 33.8,-44.26 10.29,-12.92 0.05,-0.06 c 0.89,-1.08 2.24,-1.77 3.75,-1.76 2.66,0.02 4.79,2.19 4.77,4.85 -0.01,1.15 -0.42,2.2 -1.09,3.02 l -0.05,0.05 -10.94,13.49 c -1.62,2 0,3.54 0,3.54 l 10.4,13.05 29.93,-38.19 -14.13,-19.09 z"
   style="fill:#004519;fill-opacity:0.12429379"
   inkscape:connector-curvature="0" />
		<path
   id="XMLID_16789_"
   class="st1"
   d="m 661.66,-64.96 c -0.87,-1.15 -2.25,-1.9 -3.8,-1.91 l -0.12,-0.01 -17.28,-0.1 c -3.72,-0.18 -7.48,1.33 -10.04,4.41 l -48.53,62.28 10.86,13.69 c 0,0 0.95,1.62 2.19,0 l 33.8,-44.26 10.29,-12.92 0.05,-0.06 c 0.89,-1.08 2.24,-1.77 3.75,-1.76 2.66,0.02 4.79,2.19 4.77,4.85 -0.01,1.15 -0.42,2.2 -1.09,3.02 l -0.05,0.05 -10.94,13.49 c -1.62,2 0,3.54 0,3.54 l 10.4,13.05 29.93,-38.19 -14.13,-19.09 z"
   style="fill:#004519;fill-opacity:0.12429379"
   inkscape:connector-curvature="0" />
		<path
   id="XMLID_16765_"
   class="st1"
   d="m 296.34,3.19 c -0.87,-1.15 -2.25,-1.9 -3.8,-1.91 L 292.42,1.27 275.14,1.17 C 271.42,0.99 267.66,2.5 265.1,5.58 l -48.52,62.27 10.86,13.69 c 0,0 0.95,1.62 2.19,0 l 33.8,-44.26 10.29,-12.92 0.05,-0.06 c 0.89,-1.08 2.24,-1.77 3.75,-1.76 2.66,0.02 4.79,2.19 4.77,4.85 -0.01,1.15 -0.42,2.2 -1.09,3.02 l -0.05,0.05 -10.94,13.49 c -1.62,2 0,3.54 0,3.54 L 280.61,60.54 310.54,22.35 296.4,3.26 Z"
   style="fill:#004519;fill-opacity:0.12429379"
   inkscape:connector-curvature="0" />
		<path
   id="XMLID_16763_"
   class="st1"
   d="m 366.23,3.19 c -0.87,-1.15 -2.25,-1.9 -3.8,-1.91 l -0.12,-0.01 -17.28,-0.1 c -3.72,-0.18 -7.48,1.33 -10.04,4.41 l -48.52,62.27 10.86,13.69 c 0,0 0.95,1.62 2.19,0 l 33.8,-44.26 10.29,-12.92 0.05,-0.06 c 0.89,-1.08 2.24,-1.77 3.75,-1.76 2.66,0.02 4.79,2.19 4.77,4.85 -0.01,1.15 -0.42,2.2 -1.09,3.02 l -0.05,0.05 -10.94,13.49 c -1.62,2 0,3.54 0,3.54 L 350.5,60.54 380.43,22.35 366.3,3.26 Z"
   style="fill:#004519;fill-opacity:0.12429379"
   inkscape:connector-curvature="0" />
		<path
   id="XMLID_16761_"
   class="st1"
   d="m 436.13,3.19 c -0.87,-1.15 -2.25,-1.9 -3.8,-1.91 l -0.12,-0.01 -17.28,-0.1 c -3.72,-0.18 -7.48,1.33 -10.04,4.41 l -48.52,62.27 10.86,13.69 c 0,0 0.95,1.62 2.19,0 l 33.8,-44.26 10.29,-12.92 0.05,-0.06 c 0.89,-1.08 2.24,-1.77 3.75,-1.76 2.66,0.02 4.79,2.19 4.77,4.85 -0.01,1.15 -0.42,2.2 -1.09,3.02 L 420.94,30.46 410,43.95 c -1.62,2 0,3.54 0,3.54 L 420.4,60.54 450.33,22.35 436.19,3.26 Z"
   style="fill:#004519;fill-opacity:0.12429379"
   inkscape:connector-curvature="0" />
		<path
   id="XMLID_16759_"
   class="st1"
   d="m 506.02,3.19 c -0.87,-1.15 -2.25,-1.9 -3.8,-1.91 L 502.1,1.27 484.82,1.17 C 481.1,0.99 477.34,2.5 474.78,5.58 l -48.52,62.27 10.86,13.69 c 0,0 0.95,1.62 2.19,0 l 33.8,-44.26 10.29,-12.92 0.05,-0.06 c 0.89,-1.08 2.24,-1.77 3.75,-1.76 2.66,0.02 4.79,2.19 4.77,4.85 -0.01,1.15 -0.42,2.2 -1.09,3.02 l -0.05,0.05 -10.94,13.49 c -1.62,2 0,3.54 0,3.54 l 10.4,13.05 29.93,-38.19 -14.13,-19.09 z"
   style="fill:#004519;fill-opacity:0.12429379"
   inkscape:connector-curvature="0" />
		<path
   id="XMLID_16743_"
   class="st1"
   d="m 265.3,98.6 -10.94,13.49 c -1.62,2 0,3.54 0,3.54 l 10.4,13.05 29.93,-38.19 -14.13,-19.09 -0.07,-0.08 c -0.87,-1.15 -2.25,-1.9 -3.8,-1.91 l -0.12,-0.01 -17.28,-0.1 c -3.72,-0.18 -7.48,1.33 -10.04,4.41 l -48.52,62.29 10.86,13.69 c 0,0 0.95,1.62 2.19,0 l 33.8,-44.26 10.29,-12.92 0.05,-0.06 c 0.89,-1.08 2.24,-1.77 3.75,-1.76 2.66,0.02 4.79,2.19 4.77,4.85 -0.01,1.15 -0.42,2.2 -1.09,3.02 z"
   style="fill:#004519;fill-opacity:0.12429379"
   inkscape:connector-curvature="0" />
		<path
   id="XMLID_16741_"
   class="st1"
   d="m 335.2,98.6 -10.94,13.49 c -1.62,2 0,3.54 0,3.54 l 10.4,13.05 29.93,-38.19 -14.13,-19.09 -0.07,-0.08 c -0.87,-1.15 -2.25,-1.9 -3.81,-1.91 l -0.12,-0.01 -17.28,-0.1 c -3.72,-0.18 -7.48,1.33 -10.04,4.41 l -48.52,62.29 10.86,13.69 c 0,0 0.95,1.62 2.19,0 l 33.8,-44.26 10.29,-12.92 0.05,-0.06 c 0.89,-1.08 2.24,-1.77 3.75,-1.76 2.66,0.02 4.79,2.19 4.77,4.85 -0.01,1.15 -0.42,2.2 -1.09,3.02 z"
   style="fill:#004519;fill-opacity:0.12429379"
   inkscape:connector-curvature="0" />
		<path
   id="XMLID_16739_"
   class="st1"
   d="m 405.09,98.6 -10.94,13.49 c -1.62,2 0,3.54 0,3.54 l 10.4,13.05 29.93,-38.19 -14.13,-19.09 -0.07,-0.08 c -0.87,-1.15 -2.25,-1.9 -3.8,-1.91 l -0.12,-0.01 -17.28,-0.1 c -3.72,-0.18 -7.48,1.33 -10.04,4.41 l -48.52,62.29 10.86,13.69 c 0,0 0.95,1.62 2.19,0 l 33.8,-44.26 10.29,-12.92 0.05,-0.06 c 0.89,-1.08 2.24,-1.77 3.75,-1.76 2.66,0.02 4.79,2.19 4.77,4.85 -0.01,1.15 -0.42,2.2 -1.09,3.02 z"
   style="fill:#004519;fill-opacity:0.12429379"
   inkscape:connector-curvature="0" />
		<path
   id="XMLID_16737_"
   class="st1"
   d="m 474.98,98.6 -10.94,13.49 c -1.62,2 0,3.54 0,3.54 l 10.4,13.05 29.93,-38.19 -14.13,-19.09 -0.07,-0.08 c -0.87,-1.15 -2.25,-1.9 -3.81,-1.91 l -0.12,-0.01 -17.28,-0.1 c -3.72,-0.18 -7.48,1.33 -10.04,4.41 l -48.51,62.29 10.86,13.69 c 0,0 0.95,1.62 2.19,0 l 33.8,-44.26 10.29,-12.92 0.05,-0.06 c 0.89,-1.08 2.24,-1.77 3.75,-1.76 2.66,0.02 4.79,2.19 4.77,4.85 -0.01,1.15 -0.42,2.2 -1.09,3.02 z"
   style="fill:#004519;fill-opacity:0.12429379"
   inkscape:connector-curvature="0" />
		<path
   id="XMLID_16721_"
   class="st1"
   d="m 249.45,166.75 -10.94,13.49 c -1.62,2 0,3.54 0,3.54 l 10.4,13.05 29.93,-38.19 -14.13,-19.09 -0.07,-0.08 c -0.87,-1.15 -2.25,-1.9 -3.8,-1.91 l -0.12,-0.01 -17.28,-0.1 c -3.72,-0.18 -7.48,1.33 -10.04,4.41 l -48.52,62.27 10.86,13.69 c 0,0 0.95,1.62 2.19,0 l 33.8,-44.26 10.29,-12.92 0.05,-0.06 c 0.89,-1.08 2.24,-1.77 3.75,-1.76 2.66,0.02 4.79,2.19 4.77,4.85 -0.01,1.15 -0.42,2.2 -1.09,3.02 z"
   style="fill:#004519;fill-opacity:0.12429379"
   inkscape:connector-curvature="0" />
		<path
   id="XMLID_16719_"
   class="st1"
   d="m 319.35,166.75 -10.94,13.49 c -1.62,2 0,3.54 0,3.54 l 10.4,13.05 29.93,-38.19 -14.13,-19.09 -0.07,-0.08 c -0.87,-1.15 -2.25,-1.9 -3.8,-1.91 l -0.12,-0.01 -17.28,-0.1 c -3.72,-0.18 -7.48,1.33 -10.04,4.41 l -48.52,62.27 10.86,13.69 c 0,0 0.95,1.62 2.19,0 l 33.8,-44.26 10.29,-12.92 0.05,-0.06 c 0.89,-1.08 2.24,-1.77 3.75,-1.76 2.66,0.02 4.79,2.19 4.77,4.85 -0.01,1.15 -0.42,2.2 -1.09,3.02 z"
   style="fill:#004519;fill-opacity:0.12429379"
   inkscape:connector-curvature="0" />
		<path
   id="XMLID_16717_"
   class="st1"
   d="m 389.24,166.75 -10.94,13.49 c -1.62,2 0,3.54 0,3.54 l 10.4,13.05 29.93,-38.19 -14.13,-19.09 -0.07,-0.08 c -0.87,-1.15 -2.25,-1.9 -3.8,-1.91 l -0.12,-0.01 -17.28,-0.1 c -3.72,-0.18 -7.48,1.33 -10.04,4.41 l -48.52,62.27 10.86,13.69 c 0,0 0.95,1.62 2.19,0 l 33.8,-44.26 10.29,-12.92 0.05,-0.06 c 0.89,-1.08 2.24,-1.77 3.75,-1.76 2.66,0.02 4.79,2.19 4.77,4.85 -0.01,1.15 -0.42,2.2 -1.09,3.02 z"
   style="fill:#004519;fill-opacity:0.12429379"
   inkscape:connector-curvature="0" />
		<path
   id="XMLID_16715_"
   class="st1"
   d="m 459.14,166.75 -10.94,13.49 c -1.62,2 0,3.54 0,3.54 l 10.4,13.05 29.93,-38.19 -14.13,-19.09 -0.07,-0.08 c -0.87,-1.15 -2.25,-1.9 -3.8,-1.91 l -0.12,-0.01 -17.28,-0.1 c -3.72,-0.18 -7.48,1.33 -10.04,4.41 l -48.52,62.27 10.86,13.69 c 0,0 0.95,1.62 2.19,0 l 33.8,-44.26 10.29,-12.92 0.05,-0.06 c 0.89,-1.08 2.24,-1.77 3.75,-1.76 2.66,0.02 4.79,2.19 4.77,4.85 -0.01,1.15 -0.42,2.2 -1.09,3.02 z"
   style="fill:#004519;fill-opacity:0.12429379"
   inkscape:connector-curvature="0" />
		<path
   id="XMLID_16699_"
   class="st1"
   d="m 233.61,234.89 -10.94,13.49 c -1.62,2 0,3.54 0,3.54 l 10.4,13.05 29.93,-38.19 -14.13,-19.09 -0.07,-0.08 c -0.87,-1.15 -2.25,-1.9 -3.8,-1.91 l -0.12,-0.01 -17.28,-0.1 c -3.72,-0.18 -7.48,1.33 -10.04,4.41 l -48.52,62.27 10.86,13.69 c 0,0 0.95,1.62 2.19,0 l 33.8,-44.26 10.29,-12.92 0.05,-0.06 c 0.89,-1.08 2.24,-1.77 3.75,-1.76 2.66,0.02 4.79,2.19 4.77,4.85 -0.01,1.15 -0.42,2.2 -1.09,3.02 z"
   style="fill:#004519;fill-opacity:0.12429379"
   inkscape:connector-curvature="0" />
		<path
   id="XMLID_16697_"
   class="st1"
   d="m 303.5,234.89 -10.94,13.49 c -1.62,2 0,3.54 0,3.54 l 10.4,13.05 29.93,-38.19 -14.13,-19.09 -0.07,-0.08 c -0.87,-1.15 -2.25,-1.9 -3.8,-1.91 l -0.12,-0.01 -17.28,-0.1 c -3.72,-0.18 -7.48,1.33 -10.04,4.41 l -48.52,62.27 10.86,13.69 c 0,0 0.95,1.62 2.19,0 l 33.8,-44.26 10.29,-12.92 0.05,-0.06 c 0.89,-1.08 2.24,-1.77 3.75,-1.76 2.66,0.02 4.79,2.19 4.77,4.85 -0.01,1.15 -0.42,2.2 -1.09,3.02 z"
   style="fill:#004519;fill-opacity:0.12429379"
   inkscape:connector-curvature="0" />
		<path
   id="XMLID_16695_"
   class="st1"
   d="m 373.39,234.89 -10.94,13.49 c -1.62,2 0,3.54 0,3.54 l 10.4,13.05 29.93,-38.19 -14.13,-19.09 -0.07,-0.08 c -0.87,-1.15 -2.25,-1.9 -3.8,-1.91 l -0.12,-0.01 -17.28,-0.1 c -3.72,-0.18 -7.48,1.33 -10.04,4.41 l -48.52,62.27 10.86,13.69 c 0,0 0.95,1.62 2.19,0 l 33.8,-44.26 10.29,-12.92 0.05,-0.06 c 0.89,-1.08 2.24,-1.77 3.75,-1.76 2.66,0.02 4.79,2.19 4.77,4.85 -0.01,1.15 -0.42,2.2 -1.09,3.02 z"
   style="fill:#004519;fill-opacity:0.12429379"
   inkscape:connector-curvature="0" />
		<path
   id="XMLID_16693_"
   class="st1"
   d="m 443.29,234.89 -10.94,13.49 c -1.62,2 0,3.54 0,3.54 l 10.4,13.05 29.93,-38.19 -14.13,-19.09 -0.07,-0.08 c -0.87,-1.15 -2.25,-1.9 -3.8,-1.91 l -0.12,-0.01 -17.28,-0.1 c -3.72,-0.18 -7.48,1.33 -10.04,4.41 l -48.52,62.27 10.86,13.69 c 0,0 0.95,1.62 2.19,0 l 33.8,-44.26 10.29,-12.92 0.05,-0.06 c 0.89,-1.08 2.24,-1.77 3.75,-1.76 2.66,0.02 4.79,2.19 4.77,4.85 -0.01,1.15 -0.42,2.2 -1.09,3.02 z"
   style="fill:#004519;fill-opacity:0.12429379"
   inkscape:connector-curvature="0" />
		<path
   id="XMLID_16677_"
   class="st1"
   d="m 217.76,303.03 -10.94,13.49 c -1.62,2 0,3.54 0,3.54 l 10.4,13.05 29.93,-38.19 -14.13,-19.09 -0.07,-0.08 c -0.87,-1.15 -2.25,-1.9 -3.8,-1.91 l -0.12,-0.01 -17.28,-0.1 c -3.72,-0.18 -7.48,1.33 -10.04,4.41 l -48.52,62.27 10.86,13.69 c 0,0 0.95,1.62 2.19,0 l 33.8,-44.26 10.29,-12.92 0.05,-0.06 c 0.89,-1.08 2.24,-1.77 3.75,-1.76 2.66,0.02 4.79,2.19 4.77,4.85 -0.01,1.15 -0.42,2.2 -1.09,3.02 z"
   style="fill:#004519;fill-opacity:0.12429379"
   inkscape:connector-curvature="0" />
		<path
   id="XMLID_16675_"
   class="st1"
   d="m 287.65,303.03 -10.94,13.49 c -1.62,2 0,3.54 0,3.54 l 10.4,13.05 29.93,-38.19 -14.13,-19.09 -0.07,-0.08 c -0.87,-1.15 -2.25,-1.9 -3.8,-1.91 l -0.12,-0.01 -17.28,-0.1 c -3.72,-0.18 -7.48,1.33 -10.04,4.41 l -48.52,62.27 10.86,13.69 c 0,0 0.95,1.62 2.19,0 l 33.8,-44.26 10.29,-12.92 0.05,-0.06 c 0.89,-1.08 2.24,-1.77 3.75,-1.76 2.66,0.02 4.79,2.19 4.77,4.85 -0.01,1.15 -0.42,2.2 -1.09,3.02 z"
   style="fill:#004519;fill-opacity:0.12429379"
   inkscape:connector-curvature="0" />
		<path
   id="XMLID_16673_"
   class="st1"
   d="m 357.55,303.03 -10.94,13.49 c -1.62,2 0,3.54 0,3.54 l 10.4,13.05 29.93,-38.19 -14.13,-19.09 -0.07,-0.08 c -0.87,-1.15 -2.25,-1.9 -3.8,-1.91 l -0.12,-0.01 -17.28,-0.1 c -3.72,-0.18 -7.48,1.33 -10.04,4.41 l -48.52,62.27 10.86,13.69 c 0,0 0.95,1.62 2.19,0 l 33.8,-44.26 10.29,-12.92 0.05,-0.06 c 0.89,-1.08 2.24,-1.77 3.75,-1.76 2.66,0.02 4.79,2.19 4.77,4.85 -0.01,1.15 -0.42,2.2 -1.09,3.02 z"
   style="fill:#004519;fill-opacity:0.12429379"
   inkscape:connector-curvature="0" />
		<path
   id="XMLID_16671_"
   class="st1"
   d="m 427.44,303.03 -10.94,13.49 c -1.62,2 0,3.54 0,3.54 l 10.4,13.05 29.93,-38.19 -14.13,-19.09 -0.07,-0.08 c -0.87,-1.15 -2.25,-1.9 -3.8,-1.91 l -0.12,-0.01 -17.28,-0.1 c -3.72,-0.18 -7.48,1.33 -10.04,4.41 l -48.52,62.27 10.86,13.69 c 0,0 0.95,1.62 2.19,0 l 33.8,-44.26 10.29,-12.92 0.05,-0.06 c 0.89,-1.08 2.24,-1.77 3.75,-1.76 2.66,0.02 4.79,2.19 4.77,4.85 -0.01,1.15 -0.42,2.2 -1.09,3.02 z"
   style="fill:#004519;fill-opacity:0.12429379"
   inkscape:connector-curvature="0" />
		<path
   id="XMLID_16655_"
   class="st1"
   d="m 201.91,371.17 -10.94,13.49 c -1.62,2 0,3.54 0,3.54 l 10.4,13.05 29.93,-38.19 -14.13,-19.09 -0.07,-0.08 c -0.87,-1.15 -2.25,-1.9 -3.8,-1.91 l -0.12,-0.01 -17.28,-0.1 c -3.72,-0.18 -7.48,1.33 -10.04,4.41 l -48.52,62.27 10.86,13.69 c 0,0 0.95,1.62 2.19,0 l 33.8,-44.26 10.29,-12.92 0.05,-0.06 c 0.89,-1.08 2.24,-1.77 3.75,-1.76 2.66,0.02 4.79,2.19 4.77,4.85 -0.01,1.15 -0.42,2.2 -1.09,3.02 z"
   style="fill:#004519;fill-opacity:0.12429379"
   inkscape:connector-curvature="0" />
		<path
   id="XMLID_16653_"
   class="st1"
   d="m 271.8,371.17 -10.94,13.49 c -1.62,2 0,3.54 0,3.54 l 10.4,13.05 29.93,-38.19 -14.13,-19.09 -0.07,-0.08 c -0.87,-1.15 -2.25,-1.9 -3.8,-1.91 l -0.12,-0.01 -17.28,-0.1 c -3.72,-0.18 -7.48,1.33 -10.04,4.41 l -48.52,62.27 10.86,13.69 c 0,0 0.95,1.62 2.19,0 l 33.8,-44.26 10.29,-12.92 0.05,-0.06 c 0.89,-1.08 2.24,-1.77 3.75,-1.76 2.66,0.02 4.79,2.19 4.77,4.85 -0.01,1.15 -0.42,2.2 -1.09,3.02 z"
   style="fill:#004519;fill-opacity:0.12429379"
   inkscape:connector-curvature="0" />
		<path
   id="XMLID_16651_"
   class="st1"
   d="m 341.7,371.17 -10.94,13.49 c -1.62,2 0,3.54 0,3.54 l 10.4,13.05 29.93,-38.19 -14.13,-19.09 -0.07,-0.08 c -0.87,-1.15 -2.25,-1.9 -3.8,-1.91 l -0.12,-0.01 -17.28,-0.1 c -3.72,-0.18 -7.48,1.33 -10.04,4.41 l -48.52,62.27 10.86,13.69 c 0,0 0.95,1.62 2.19,0 l 33.8,-44.26 10.29,-12.92 0.05,-0.06 c 0.89,-1.08 2.24,-1.77 3.75,-1.76 2.66,0.02 4.79,2.19 4.77,4.85 -0.01,1.15 -0.42,2.2 -1.09,3.02 z"
   style="fill:#004519;fill-opacity:0.12429379"
   inkscape:connector-curvature="0" />
		<path
   id="XMLID_16649_"
   class="st1"
   d="m 411.59,371.17 -10.94,13.49 c -1.62,2 0,3.54 0,3.54 l 10.4,13.05 29.93,-38.19 -14.13,-19.09 -0.07,-0.08 c -0.87,-1.15 -2.25,-1.9 -3.8,-1.91 l -0.12,-0.01 -17.28,-0.1 c -3.72,-0.18 -7.48,1.33 -10.04,4.41 l -48.52,62.27 10.86,13.69 c 0,0 0.95,1.62 2.19,0 l 33.8,-44.26 10.29,-12.92 0.05,-0.06 c 0.89,-1.08 2.24,-1.77 3.75,-1.76 2.66,0.02 4.79,2.19 4.77,4.85 -0.01,1.15 -0.42,2.2 -1.09,3.02 z"
   style="fill:#004519;fill-opacity:0.12429379"
   inkscape:connector-curvature="0" />
		<g
   id="g89"
   style="fill:#004519;fill-opacity:0.12429379">
			<path
   id="XMLID_16647_"
   class="st1"
   d="m 575.91,3.19 c -0.87,-1.15 -2.25,-1.9 -3.8,-1.91 l -0.12,-0.01 -17.28,-0.1 c -3.72,-0.18 -7.48,1.33 -10.04,4.41 l -48.52,62.27 10.86,13.69 c 0,0 0.95,1.62 2.19,0 L 543,37.28 553.29,24.36 553.34,24.3 c 0.89,-1.08 2.24,-1.77 3.75,-1.76 2.66,0.02 4.79,2.19 4.77,4.85 -0.01,1.15 -0.42,2.2 -1.09,3.02 l -0.05,0.05 -10.94,13.49 c -1.62,2 0,3.54 0,3.54 l 10.4,13.05 29.93,-38.19 -14.13,-19.09 z"
   style="fill:#004519;fill-opacity:0.12429379"
   inkscape:connector-curvature="0" />
			<path
   id="XMLID_16645_"
   class="st1"
   d="m 645.81,3.19 c -0.87,-1.15 -2.25,-1.9 -3.8,-1.91 l -0.12,-0.01 -17.28,-0.1 c -3.72,-0.18 -7.48,1.33 -10.04,4.41 l -48.52,62.27 10.86,13.69 c 0,0 0.95,1.62 2.19,0 l 33.8,-44.26 10.29,-12.92 0.05,-0.06 c 0.89,-1.08 2.24,-1.77 3.75,-1.76 2.66,0.02 4.79,2.19 4.77,4.85 -0.01,1.15 -0.42,2.2 -1.09,3.02 l -0.05,0.05 -10.94,13.49 c -1.62,2 0,3.54 0,3.54 l 10.4,13.05 29.93,-38.19 -14.14,-19.09 z"
   style="fill:#004519;fill-opacity:0.12429379"
   inkscape:connector-curvature="0" />
			<path
   id="XMLID_16635_"
   class="st1"
   d="m 544.88,98.6 -10.94,13.49 c -1.62,2 0,3.54 0,3.54 l 10.4,13.05 29.93,-38.19 -14.13,-19.09 -0.07,-0.08 c -0.87,-1.15 -2.25,-1.9 -3.8,-1.91 l -0.12,-0.01 -17.28,-0.1 c -3.72,-0.18 -7.48,1.33 -10.04,4.41 L 480.3,136 l 10.86,13.69 c 0,0 0.95,1.62 2.19,0 l 33.8,-44.26 10.29,-12.92 0.05,-0.06 c 0.89,-1.08 2.24,-1.77 3.75,-1.76 2.66,0.02 4.79,2.19 4.77,4.85 -0.01,1.15 -0.42,2.2 -1.09,3.02 z"
   style="fill:#004519;fill-opacity:0.12429379"
   inkscape:connector-curvature="0" />
			<path
   id="XMLID_16633_"
   class="st1"
   d="m 614.77,98.6 -10.94,13.49 c -1.62,2 0,3.54 0,3.54 l 10.4,13.05 29.93,-38.19 -14.13,-19.09 -0.07,-0.08 c -0.87,-1.15 -2.25,-1.9 -3.8,-1.91 l -0.12,-0.01 -17.28,-0.1 c -3.72,-0.18 -7.48,1.33 -10.04,4.41 L 550.2,136 l 10.86,13.69 c 0,0 0.95,1.62 2.19,0 l 33.8,-44.26 10.29,-12.92 0.05,-0.06 c 0.89,-1.08 2.24,-1.77 3.75,-1.76 2.66,0.02 4.79,2.19 4.77,4.85 -0.01,1.15 -0.42,2.2 -1.09,3.02 z"
   style="fill:#004519;fill-opacity:0.12429379"
   inkscape:connector-curvature="0" />
			<path
   id="XMLID_16631_"
   class="st1"
   d="m 684.67,98.6 -10.94,13.49 c -1.62,2 0,3.54 0,3.54 l 10.4,13.05 29.93,-38.19 -14.13,-19.09 -0.07,-0.08 c -0.87,-1.15 -2.25,-1.9 -3.8,-1.91 l -0.12,-0.01 -17.28,-0.1 c -3.72,-0.18 -7.48,1.33 -10.04,4.41 l -48.53,62.29 10.86,13.69 c 0,0 0.95,1.62 2.19,0 l 33.8,-44.26 10.29,-12.92 0.05,-0.06 c 0.89,-1.08 2.24,-1.77 3.75,-1.76 2.66,0.02 4.79,2.19 4.77,4.85 -0.01,1.15 -0.42,2.2 -1.09,3.02 z"
   style="fill:#004519;fill-opacity:0.12429379"
   inkscape:connector-curvature="0" />
			<path
   id="XMLID_16623_"
   class="st1"
   d="m 529.03,166.75 -10.94,13.49 c -1.62,2 0,3.54 0,3.54 l 10.4,13.05 29.93,-38.19 -14.13,-19.09 -0.07,-0.08 c -0.87,-1.15 -2.25,-1.9 -3.8,-1.91 l -0.12,-0.01 -17.28,-0.1 c -3.72,-0.18 -7.48,1.33 -10.04,4.41 l -48.52,62.27 10.86,13.69 c 0,0 0.95,1.62 2.19,0 l 33.8,-44.26 10.29,-12.92 0.05,-0.06 c 0.89,-1.08 2.24,-1.77 3.75,-1.76 2.66,0.02 4.79,2.19 4.77,4.85 -0.01,1.15 -0.42,2.2 -1.09,3.02 z"
   style="fill:#004519;fill-opacity:0.12429379"
   inkscape:connector-curvature="0" />
			<path
   id="XMLID_16621_"
   class="st1"
   d="m 598.92,166.75 -10.94,13.49 c -1.62,2 0,3.54 0,3.54 l 10.4,13.05 29.93,-38.19 -14.13,-19.09 -0.07,-0.08 c -0.87,-1.15 -2.25,-1.9 -3.8,-1.91 l -0.12,-0.01 -17.28,-0.1 c -3.72,-0.18 -7.48,1.33 -10.04,4.41 l -48.52,62.27 10.86,13.69 c 0,0 0.95,1.62 2.19,0 l 33.8,-44.26 10.29,-12.92 0.05,-0.06 c 0.89,-1.08 2.24,-1.77 3.75,-1.76 2.66,0.02 4.79,2.19 4.77,4.85 -0.01,1.15 -0.42,2.2 -1.09,3.02 z"
   style="fill:#004519;fill-opacity:0.12429379"
   inkscape:connector-curvature="0" />
			<path
   id="XMLID_16619_"
   class="st1"
   d="m 668.82,166.75 -10.94,13.49 c -1.62,2 0,3.54 0,3.54 l 10.4,13.05 29.93,-38.19 -14.13,-19.09 -0.07,-0.08 c -0.87,-1.15 -2.25,-1.9 -3.81,-1.91 l -0.12,-0.01 -17.28,-0.1 c -3.72,-0.18 -7.48,1.33 -10.04,4.41 l -48.52,62.27 10.86,13.69 c 0,0 0.95,1.62 2.19,0 l 33.8,-44.26 10.29,-12.92 0.05,-0.06 c 0.89,-1.08 2.24,-1.77 3.75,-1.76 2.66,0.02 4.79,2.19 4.77,4.85 -0.01,1.15 -0.42,2.2 -1.09,3.02 z"
   style="fill:#004519;fill-opacity:0.12429379"
   inkscape:connector-curvature="0" />
			<path
   id="XMLID_16611_"
   class="st1"
   d="m 513.18,234.89 -10.94,13.49 c -1.62,2 0,3.54 0,3.54 l 10.4,13.05 29.93,-38.19 -14.13,-19.09 -0.07,-0.08 c -0.87,-1.15 -2.25,-1.9 -3.8,-1.91 l -0.12,-0.01 -17.28,-0.1 c -3.72,-0.18 -7.48,1.33 -10.04,4.41 l -48.52,62.27 10.86,13.69 c 0,0 0.95,1.62 2.19,0 l 33.8,-44.26 10.29,-12.92 0.05,-0.06 c 0.89,-1.08 2.24,-1.77 3.75,-1.76 2.66,0.02 4.79,2.19 4.77,4.85 -0.01,1.15 -0.42,2.2 -1.09,3.02 z"
   style="fill:#004519;fill-opacity:0.12429379"
   inkscape:connector-curvature="0" />
			<path
   id="XMLID_16609_"
   class="st1"
   d="m 583.08,234.89 -10.94,13.49 c -1.62,2 0,3.54 0,3.54 l 10.4,13.05 29.93,-38.19 -14.13,-19.09 -0.07,-0.08 c -0.87,-1.15 -2.25,-1.9 -3.8,-1.91 l -0.12,-0.01 -17.28,-0.1 c -3.72,-0.18 -7.48,1.33 -10.04,4.41 l -48.52,62.27 10.86,13.69 c 0,0 0.95,1.62 2.19,0 l 33.8,-44.26 10.29,-12.92 0.05,-0.06 c 0.89,-1.08 2.24,-1.77 3.75,-1.76 2.66,0.02 4.79,2.19 4.77,4.85 -0.01,1.15 -0.42,2.2 -1.09,3.02 z"
   style="fill:#004519;fill-opacity:0.12429379"
   inkscape:connector-curvature="0" />
			<path
   id="XMLID_16607_"
   class="st1"
   d="m 652.97,234.89 -10.94,13.49 c -1.62,2 0,3.54 0,3.54 l 10.4,13.05 29.93,-38.19 -14.13,-19.09 -0.07,-0.08 c -0.87,-1.15 -2.25,-1.9 -3.8,-1.91 l -0.12,-0.01 -17.28,-0.1 c -3.72,-0.18 -7.48,1.33 -10.04,4.41 l -48.52,62.27 10.86,13.69 c 0,0 0.95,1.62 2.19,0 l 33.8,-44.26 10.29,-12.92 0.05,-0.06 c 0.89,-1.08 2.24,-1.77 3.75,-1.76 2.66,0.02 4.79,2.19 4.77,4.85 -0.01,1.15 -0.42,2.2 -1.09,3.02 z"
   style="fill:#004519;fill-opacity:0.12429379"
   inkscape:connector-curvature="0" />
			<path
   id="XMLID_16599_"
   class="st1"
   d="m 497.33,303.03 -10.94,13.49 c -1.62,2 0,3.54 0,3.54 l 10.4,13.05 29.93,-38.19 -14.13,-19.09 -0.07,-0.08 c -0.87,-1.15 -2.25,-1.9 -3.81,-1.91 l -0.12,-0.01 -17.28,-0.1 c -3.72,-0.18 -7.48,1.33 -10.04,4.41 l -48.52,62.27 10.86,13.69 c 0,0 0.95,1.62 2.19,0 l 33.8,-44.26 10.29,-12.92 0.05,-0.06 c 0.89,-1.08 2.24,-1.77 3.75,-1.76 2.66,0.02 4.79,2.19 4.77,4.85 -0.01,1.15 -0.42,2.2 -1.09,3.02 z"
   style="fill:#004519;fill-opacity:0.12429379"
   inkscape:connector-curvature="0" />
			<path
   id="XMLID_16597_"
   class="st1"
   d="m 567.23,303.03 -10.94,13.49 c -1.62,2 0,3.54 0,3.54 l 10.4,13.05 29.93,-38.19 -14.13,-19.09 -0.07,-0.08 c -0.87,-1.15 -2.25,-1.9 -3.8,-1.91 l -0.12,-0.01 -17.28,-0.1 c -3.72,-0.18 -7.48,1.33 -10.04,4.41 l -48.52,62.27 10.86,13.69 c 0,0 0.95,1.62 2.19,0 l 33.8,-44.26 10.29,-12.92 0.05,-0.06 c 0.89,-1.08 2.24,-1.77 3.75,-1.76 2.66,0.02 4.79,2.19 4.77,4.85 -0.01,1.15 -0.42,2.2 -1.09,3.02 z"
   style="fill:#004519;fill-opacity:0.12429379"
   inkscape:connector-curvature="0" />
			<path
   id="XMLID_16595_"
   class="st1"
   d="m 637.12,303.03 -10.94,13.49 c -1.62,2 0,3.54 0,3.54 l 10.4,13.05 29.93,-38.19 -14.13,-19.09 -0.07,-0.08 c -0.87,-1.15 -2.25,-1.9 -3.81,-1.91 l -0.12,-0.01 -17.28,-0.1 c -3.72,-0.18 -7.48,1.33 -10.04,4.41 l -48.52,62.27 10.86,13.69 c 0,0 0.95,1.62 2.19,0 l 33.8,-44.26 10.29,-12.92 0.05,-0.06 c 0.89,-1.08 2.24,-1.77 3.75,-1.76 2.66,0.02 4.79,2.19 4.77,4.85 -0.01,1.15 -0.42,2.2 -1.09,3.02 z"
   style="fill:#004519;fill-opacity:0.12429379"
   inkscape:connector-curvature="0" />
			<path
   id="XMLID_16587_"
   class="st1"
   d="m 481.48,371.17 -10.94,13.49 c -1.62,2 0,3.54 0,3.54 l 10.4,13.05 29.93,-38.19 -14.13,-19.09 -0.07,-0.08 c -0.87,-1.15 -2.25,-1.9 -3.8,-1.91 l -0.12,-0.01 -17.28,-0.1 c -3.72,-0.18 -7.48,1.33 -10.04,4.41 l -48.52,62.27 10.86,13.69 c 0,0 0.95,1.62 2.19,0 l 33.8,-44.26 10.29,-12.92 0.05,-0.06 c 0.89,-1.08 2.24,-1.77 3.75,-1.76 2.66,0.02 4.79,2.19 4.77,4.85 -0.01,1.15 -0.42,2.2 -1.09,3.02 z"
   style="fill:#004519;fill-opacity:0.12429379"
   inkscape:connector-curvature="0" />
			<path
   id="XMLID_16585_"
   class="st1"
   d="m 551.38,371.17 -10.94,13.49 c -1.62,2 0,3.54 0,3.54 l 10.4,13.05 29.93,-38.19 -14.13,-19.09 -0.07,-0.08 c -0.87,-1.15 -2.25,-1.9 -3.8,-1.91 l -0.12,-0.01 -17.28,-0.1 c -3.72,-0.18 -7.48,1.33 -10.04,4.41 l -48.52,62.27 10.86,13.69 c 0,0 0.95,1.62 2.19,0 l 33.8,-44.26 10.29,-12.92 L 544,365 c 0.89,-1.08 2.24,-1.77 3.75,-1.76 2.66,0.02 4.79,2.19 4.77,4.85 -0.01,1.15 -0.42,2.2 -1.09,3.02 z"
   style="fill:#004519;fill-opacity:0.12429379"
   inkscape:connector-curvature="0" />
			<path
   id="XMLID_16583_"
   class="st1"
   d="m 621.27,371.17 -10.94,13.49 c -1.62,2 0,3.54 0,3.54 l 10.4,13.05 29.93,-38.19 -14.13,-19.09 -0.07,-0.08 c -0.87,-1.15 -2.25,-1.9 -3.8,-1.91 l -0.12,-0.01 -17.28,-0.1 c -3.72,-0.18 -7.48,1.33 -10.04,4.41 l -48.52,62.27 10.86,13.69 c 0,0 0.95,1.62 2.19,0 l 33.8,-44.26 10.29,-12.92 0.05,-0.06 c 0.89,-1.08 2.24,-1.77 3.75,-1.76 2.66,0.02 4.79,2.19 4.77,4.85 -0.01,1.15 -0.42,2.2 -1.09,3.02 z"
   style="fill:#004519;fill-opacity:0.12429379"
   inkscape:connector-curvature="0" />
			<path
   id="XMLID_16581_"
   class="st1"
   d="m 691.17,371.17 -10.94,13.49 c -1.62,2 0,3.54 0,3.54 l 10.4,13.05 29.93,-38.19 -14.13,-19.09 -0.07,-0.08 c -0.87,-1.15 -2.25,-1.9 -3.8,-1.91 l -0.12,-0.01 -17.28,-0.1 c -3.72,-0.18 -7.48,1.33 -10.04,4.41 l -48.52,62.27 10.86,13.69 c 0,0 0.95,1.62 2.19,0 l 33.8,-44.26 10.29,-12.92 0.05,-0.06 c 0.89,-1.08 2.24,-1.77 3.75,-1.76 2.66,0.02 4.79,2.19 4.77,4.85 -0.01,1.15 -0.42,2.2 -1.09,3.02 z"
   style="fill:#004519;fill-opacity:0.12429379"
   inkscape:connector-curvature="0" />
		</g>
		<path
   id="XMLID_16561_"
   class="st1"
   d="m 186.06,439.32 -10.94,13.49 c -1.62,2 0,3.54 0,3.54 l 10.4,13.05 29.93,-38.19 -14.13,-19.09 -0.07,-0.08 c -0.87,-1.15 -2.25,-1.9 -3.8,-1.91 l -0.12,-0.01 -17.28,-0.1 c -3.72,-0.18 -7.48,1.33 -10.04,4.41 l -48.52,62.27 10.86,13.69 c 0,0 0.95,1.62 2.19,0 l 33.8,-44.26 10.29,-12.92 0.05,-0.06 c 0.89,-1.08 2.24,-1.77 3.75,-1.76 2.66,0.02 4.79,2.19 4.77,4.85 -0.01,1.15 -0.42,2.2 -1.09,3.02 z"
   style="fill:#004519;fill-opacity:0.12429379"
   inkscape:connector-curvature="0" />
		<path
   id="XMLID_16559_"
   class="st1"
   d="m 255.95,439.32 -10.94,13.49 c -1.62,2 0,3.54 0,3.54 l 10.4,13.05 29.93,-38.19 -14.13,-19.09 -0.07,-0.08 c -0.87,-1.15 -2.25,-1.9 -3.8,-1.91 l -0.12,-0.01 -17.28,-0.1 c -3.72,-0.18 -7.48,1.33 -10.04,4.41 l -48.52,62.27 10.86,13.69 c 0,0 0.95,1.62 2.19,0 l 33.8,-44.26 10.29,-12.92 0.05,-0.06 c 0.89,-1.08 2.24,-1.77 3.75,-1.76 2.66,0.02 4.79,2.19 4.77,4.85 -0.01,1.15 -0.42,2.2 -1.09,3.02 z"
   style="fill:#004519;fill-opacity:0.12429379"
   inkscape:connector-curvature="0" />
		<path
   id="XMLID_16557_"
   class="st1"
   d="m 325.85,439.32 -10.94,13.49 c -1.62,2 0,3.54 0,3.54 l 10.4,13.05 29.93,-38.19 -14.13,-19.09 -0.07,-0.08 c -0.87,-1.15 -2.25,-1.9 -3.8,-1.91 l -0.12,-0.01 -17.28,-0.1 c -3.72,-0.18 -7.48,1.33 -10.04,4.41 l -48.52,62.27 10.86,13.69 c 0,0 0.95,1.62 2.19,0 l 33.8,-44.26 10.29,-12.92 0.05,-0.06 c 0.89,-1.08 2.24,-1.77 3.75,-1.76 2.66,0.02 4.79,2.19 4.77,4.85 -0.01,1.15 -0.42,2.2 -1.09,3.02 z"
   style="fill:#004519;fill-opacity:0.12429379"
   inkscape:connector-curvature="0" />
		<path
   id="XMLID_16555_"
   class="st1"
   d="m 395.74,439.32 -10.94,13.49 c -1.62,2 0,3.54 0,3.54 l 10.4,13.05 29.93,-38.19 -14.13,-19.09 -0.07,-0.08 c -0.87,-1.15 -2.25,-1.9 -3.8,-1.91 l -0.12,-0.01 -17.28,-0.1 c -3.72,-0.18 -7.48,1.33 -10.04,4.41 l -48.52,62.27 10.86,13.69 c 0,0 0.95,1.62 2.19,0 l 33.8,-44.26 10.29,-12.92 0.05,-0.06 c 0.89,-1.08 2.24,-1.77 3.75,-1.76 2.66,0.02 4.79,2.19 4.77,4.85 -0.01,1.15 -0.42,2.2 -1.09,3.02 z"
   style="fill:#004519;fill-opacity:0.12429379"
   inkscape:connector-curvature="0" />
		<path
   id="XMLID_16553_"
   class="st1"
   d="m 465.64,439.32 -10.94,13.49 c -1.62,2 0,3.54 0,3.54 l 10.4,13.05 29.93,-38.19 -14.13,-19.09 -0.07,-0.08 c -0.87,-1.15 -2.25,-1.9 -3.8,-1.91 l -0.12,-0.01 -17.28,-0.1 c -3.72,-0.18 -7.48,1.33 -10.04,4.41 l -48.52,62.27 10.86,13.69 c 0,0 0.95,1.62 2.19,0 l 33.8,-44.26 10.29,-12.92 0.05,-0.06 c 0.89,-1.08 2.24,-1.77 3.75,-1.76 2.66,0.02 4.79,2.19 4.77,4.85 -0.01,1.15 -0.42,2.2 -1.09,3.02 z"
   style="fill:#004519;fill-opacity:0.12429379"
   inkscape:connector-curvature="0" />
		<path
   id="XMLID_16551_"
   class="st1"
   d="m 535.53,439.32 -10.94,13.49 c -1.62,2 0,3.54 0,3.54 l 10.4,13.05 29.93,-38.19 -14.13,-19.09 -0.07,-0.08 c -0.87,-1.15 -2.25,-1.9 -3.8,-1.91 l -0.12,-0.01 -17.28,-0.1 c -3.72,-0.18 -7.48,1.33 -10.04,4.41 l -48.52,62.27 10.86,13.69 c 0,0 0.95,1.62 2.19,0 l 33.8,-44.26 10.29,-12.92 0.05,-0.06 c 0.89,-1.08 2.24,-1.77 3.75,-1.76 2.66,0.02 4.79,2.19 4.77,4.85 -0.01,1.15 -0.42,2.2 -1.09,3.02 z"
   style="fill:#004519;fill-opacity:0.12429379"
   inkscape:connector-curvature="0" />
		<path
   id="XMLID_16549_"
   class="st1"
   d="m 605.42,439.32 -10.94,13.49 c -1.62,2 0,3.54 0,3.54 l 10.4,13.05 29.93,-38.19 -14.13,-19.09 -0.07,-0.08 c -0.87,-1.15 -2.25,-1.9 -3.8,-1.91 l -0.12,-0.01 -17.28,-0.1 c -3.72,-0.18 -7.48,1.33 -10.04,4.41 l -48.52,62.27 10.86,13.69 c 0,0 0.95,1.62 2.19,0 l 33.8,-44.26 10.29,-12.92 0.05,-0.06 c 0.89,-1.08 2.24,-1.77 3.75,-1.76 2.66,0.02 4.79,2.19 4.77,4.85 -0.01,1.15 -0.42,2.2 -1.09,3.02 z"
   style="fill:#004519;fill-opacity:0.12429379"
   inkscape:connector-curvature="0" />
		<path
   id="XMLID_16547_"
   class="st1"
   d="m 675.32,439.32 -10.94,13.49 c -1.62,2 0,3.54 0,3.54 l 10.4,13.05 29.93,-38.19 -14.13,-19.09 -0.07,-0.08 c -0.87,-1.15 -2.25,-1.9 -3.8,-1.91 l -0.12,-0.01 -17.28,-0.1 c -3.72,-0.18 -7.48,1.33 -10.04,4.41 l -48.52,62.27 10.86,13.69 c 0,0 0.95,1.62 2.19,0 l 33.8,-44.26 10.29,-12.92 0.05,-0.06 c 0.89,-1.08 2.24,-1.77 3.75,-1.76 2.66,0.02 4.79,2.19 4.77,4.85 -0.01,1.15 -0.42,2.2 -1.09,3.02 z"
   style="fill:#004519;fill-opacity:0.12429379"
   inkscape:connector-curvature="0" />
		<path
   id="XMLID_16527_"
   class="st1"
   d="m 170.21,507.46 -10.94,13.49 c -1.62,2 0,3.54 0,3.54 l 10.4,13.05 29.93,-38.19 -14.13,-19.09 -0.07,-0.08 c -0.87,-1.15 -2.25,-1.9 -3.8,-1.91 l -0.12,-0.01 -17.28,-0.1 c -3.72,-0.18 -7.48,1.33 -10.04,4.41 l -48.52,62.27 10.86,13.69 c 0,0 0.95,1.62 2.19,0 l 33.8,-44.26 10.29,-12.92 0.05,-0.06 c 0.89,-1.08 2.24,-1.77 3.75,-1.76 2.66,0.02 4.79,2.19 4.77,4.85 -0.01,1.15 -0.42,2.2 -1.09,3.02 z"
   style="fill:#004519;fill-opacity:0.12429379"
   inkscape:connector-curvature="0" />
		<path
   id="XMLID_16525_"
   class="st1"
   d="m 240.11,507.46 -10.94,13.49 c -1.62,2 0,3.54 0,3.54 l 10.4,13.05 29.93,-38.19 -14.13,-19.09 -0.07,-0.08 c -0.87,-1.15 -2.25,-1.9 -3.8,-1.91 l -0.12,-0.01 -17.28,-0.1 c -3.72,-0.18 -7.48,1.33 -10.04,4.41 l -48.52,62.27 10.86,13.69 c 0,0 0.95,1.62 2.19,0 l 33.8,-44.26 10.29,-12.92 0.05,-0.06 c 0.89,-1.08 2.24,-1.77 3.75,-1.76 2.66,0.02 4.79,2.19 4.77,4.85 -0.01,1.15 -0.42,2.2 -1.09,3.02 z"
   style="fill:#004519;fill-opacity:0.12429379"
   inkscape:connector-curvature="0" />
		<path
   id="XMLID_16523_"
   class="st1"
   d="m 310,507.46 -10.94,13.49 c -1.62,2 0,3.54 0,3.54 l 10.4,13.05 29.93,-38.19 -14.13,-19.09 -0.07,-0.08 c -0.87,-1.15 -2.25,-1.9 -3.8,-1.91 l -0.12,-0.01 -17.28,-0.1 c -3.72,-0.18 -7.48,1.33 -10.04,4.41 l -48.52,62.27 10.86,13.69 c 0,0 0.95,1.62 2.19,0 l 33.8,-44.26 10.29,-12.92 0.05,-0.06 c 0.89,-1.08 2.24,-1.77 3.75,-1.76 2.66,0.02 4.79,2.19 4.77,4.85 -0.01,1.15 -0.42,2.2 -1.09,3.02 z"
   style="fill:#004519;fill-opacity:0.12429379"
   inkscape:connector-curvature="0" />
		<path
   id="XMLID_16521_"
   class="st1"
   d="m 379.89,507.46 -10.94,13.49 c -1.62,2 0,3.54 0,3.54 l 10.4,13.05 29.93,-38.19 -14.13,-19.09 -0.07,-0.08 c -0.87,-1.15 -2.25,-1.9 -3.8,-1.91 l -0.12,-0.01 -17.28,-0.1 c -3.72,-0.18 -7.48,1.33 -10.04,4.41 l -48.52,62.27 10.86,13.69 c 0,0 0.95,1.62 2.19,0 l 33.8,-44.26 10.29,-12.92 0.05,-0.06 c 0.89,-1.08 2.24,-1.77 3.75,-1.76 2.66,0.02 4.79,2.19 4.77,4.85 -0.01,1.15 -0.42,2.2 -1.09,3.02 z"
   style="fill:#004519;fill-opacity:0.12429379"
   inkscape:connector-curvature="0" />
		<path
   id="XMLID_16519_"
   class="st1"
   d="m 449.79,507.46 -10.94,13.49 c -1.62,2 0,3.54 0,3.54 l 10.4,13.05 29.93,-38.19 -14.13,-19.09 -0.07,-0.08 c -0.87,-1.15 -2.25,-1.9 -3.8,-1.91 l -0.12,-0.01 -17.28,-0.1 c -3.72,-0.18 -7.48,1.33 -10.04,4.41 l -48.52,62.27 10.86,13.69 c 0,0 0.95,1.62 2.19,0 l 33.8,-44.26 10.29,-12.92 0.05,-0.06 c 0.89,-1.08 2.24,-1.77 3.75,-1.76 2.66,0.02 4.79,2.19 4.77,4.85 -0.01,1.15 -0.42,2.2 -1.09,3.02 z"
   style="fill:#004519;fill-opacity:0.12429379"
   inkscape:connector-curvature="0" />
		<path
   id="XMLID_16517_"
   class="st1"
   d="m 519.68,507.46 -10.94,13.49 c -1.62,2 0,3.54 0,3.54 l 10.4,13.05 29.93,-38.19 -14.13,-19.09 -0.07,-0.08 c -0.87,-1.15 -2.25,-1.9 -3.8,-1.91 l -0.12,-0.01 -17.28,-0.1 c -3.72,-0.18 -7.48,1.33 -10.04,4.41 l -48.52,62.27 10.86,13.69 c 0,0 0.95,1.62 2.19,0 l 33.8,-44.26 10.29,-12.92 0.05,-0.06 c 0.89,-1.08 2.24,-1.77 3.75,-1.76 2.66,0.02 4.79,2.19 4.77,4.85 -0.01,1.15 -0.42,2.2 -1.09,3.02 z"
   style="fill:#004519;fill-opacity:0.12429379"
   inkscape:connector-curvature="0" />
		<path
   id="XMLID_16515_"
   class="st1"
   d="m 589.58,507.46 -10.94,13.49 c -1.62,2 0,3.54 0,3.54 l 10.4,13.05 29.93,-38.19 -14.13,-19.09 -0.07,-0.08 c -0.87,-1.15 -2.25,-1.9 -3.8,-1.91 l -0.12,-0.01 -17.28,-0.1 c -3.72,-0.18 -7.48,1.33 -10.04,4.41 l -48.53,62.28 10.86,13.69 c 0,0 0.95,1.62 2.19,0 l 33.8,-44.26 10.29,-12.92 0.05,-0.06 c 0.89,-1.08 2.24,-1.77 3.75,-1.76 2.66,0.02 4.79,2.19 4.77,4.85 -0.01,1.15 -0.42,2.2 -1.09,3.02 z"
   style="fill:#004519;fill-opacity:0.12429379"
   inkscape:connector-curvature="0" />
		<path
   id="XMLID_16513_"
   class="st1"
   d="m 659.47,507.46 -10.94,13.49 c -1.62,2 0,3.54 0,3.54 l 10.4,13.05 29.93,-38.19 -14.13,-19.09 -0.07,-0.08 c -0.87,-1.15 -2.25,-1.9 -3.8,-1.91 l -0.12,-0.01 -17.28,-0.1 c -3.72,-0.18 -7.48,1.33 -10.04,4.41 l -48.52,62.27 10.86,13.69 c 0,0 0.95,1.62 2.19,0 l 33.8,-44.26 10.29,-12.92 0.05,-0.06 c 0.89,-1.08 2.24,-1.77 3.75,-1.76 2.66,0.02 4.79,2.19 4.77,4.85 -0.01,1.15 -0.42,2.2 -1.09,3.02 z"
   style="fill:#004519;fill-opacity:0.12429379"
   inkscape:connector-curvature="0" />
		<path
   id="XMLID_16493_"
   class="st1"
   d="m 153.36,575.6 -10.94,13.49 c -1.62,2 0,3.54 0,3.54 l 10.4,13.05 29.93,-38.19 -14.13,-19.09 -0.07,-0.08 c -0.87,-1.15 -2.25,-1.9 -3.8,-1.91 l -0.12,-0.01 -17.28,-0.1 c -3.72,-0.18 -7.48,1.33 -10.04,4.41 L 88.79,613 99.65,626.69 c 0,0 0.95,1.62 2.19,0 l 33.8,-44.26 10.29,-12.92 0.05,-0.06 c 0.89,-1.08 2.24,-1.77 3.75,-1.76 2.66,0.02 4.79,2.19 4.77,4.85 -0.01,1.15 -0.42,2.2 -1.09,3.02 z"
   style="fill:#004519;fill-opacity:0.12429379"
   inkscape:connector-curvature="0" />
		<path
   id="XMLID_16491_"
   class="st1"
   d="m 223.26,575.6 -10.94,13.49 c -1.62,2 0,3.54 0,3.54 l 10.4,13.05 29.93,-38.19 -14.13,-19.09 -0.07,-0.08 c -0.87,-1.15 -2.25,-1.9 -3.8,-1.91 l -0.12,-0.01 -17.28,-0.1 c -3.72,-0.18 -7.48,1.33 -10.04,4.41 l -48.53,62.29 10.86,13.69 c 0,0 0.95,1.62 2.19,0 l 33.8,-44.26 10.29,-12.92 0.05,-0.06 c 0.89,-1.08 2.24,-1.77 3.75,-1.76 2.66,0.02 4.79,2.19 4.77,4.85 -0.01,1.15 -0.42,2.2 -1.09,3.02 z"
   style="fill:#004519;fill-opacity:0.12429379"
   inkscape:connector-curvature="0" />
		<path
   id="XMLID_16489_"
   class="st1"
   d="m 293.63,575.6 -10.94,13.49 c -1.62,2 0,3.54 0,3.54 l 10.4,13.05 29.93,-38.19 -14.13,-19.09 -0.07,-0.08 c -0.87,-1.15 -2.25,-1.9 -3.8,-1.91 l -0.12,-0.01 -17.28,-0.1 c -3.72,-0.18 -7.48,1.33 -10.04,4.41 l -48.53,62.29 10.86,13.69 c 0,0 0.95,1.62 2.19,0 l 33.8,-44.26 10.29,-12.92 0.05,-0.06 c 0.89,-1.08 2.24,-1.77 3.75,-1.76 2.66,0.02 4.79,2.19 4.77,4.85 -0.01,1.15 -0.42,2.2 -1.09,3.02 z"
   style="fill:#004519;fill-opacity:0.12429379"
   inkscape:connector-curvature="0" />
		<path
   id="XMLID_16487_"
   class="st1"
   d="m 363.93,575.6 -10.94,13.49 c -1.62,2 0,3.54 0,3.54 l 10.4,13.05 29.93,-38.19 -14.13,-19.09 -0.07,-0.08 c -0.87,-1.15 -2.25,-1.9 -3.8,-1.91 l -0.12,-0.01 -17.28,-0.1 c -3.72,-0.18 -7.48,1.33 -10.04,4.41 l -48.53,62.29 10.86,13.69 c 0,0 0.95,1.62 2.19,0 l 33.8,-44.26 10.29,-12.92 0.05,-0.06 c 0.89,-1.08 2.24,-1.77 3.75,-1.76 2.66,0.02 4.79,2.19 4.77,4.85 -0.01,1.15 -0.42,2.2 -1.09,3.02 z"
   style="fill:#004519;fill-opacity:0.12429379"
   inkscape:connector-curvature="0" />
		<path
   id="XMLID_16485_"
   class="st1"
   d="m 433.63,575.6 -10.94,13.49 c -1.62,2 0,3.54 0,3.54 l 10.4,13.05 29.93,-38.19 -14.13,-19.09 -0.07,-0.08 c -0.87,-1.15 -2.25,-1.9 -3.8,-1.91 l -0.12,-0.01 -17.28,-0.1 c -3.72,-0.18 -7.48,1.33 -10.04,4.41 l -48.53,62.29 10.86,13.69 c 0,0 0.95,1.62 2.19,0 l 33.8,-44.26 10.29,-12.92 0.05,-0.06 c 0.89,-1.08 2.24,-1.77 3.75,-1.76 2.66,0.02 4.79,2.19 4.77,4.85 -0.01,1.15 -0.42,2.2 -1.09,3.02 z"
   style="fill:#004519;fill-opacity:0.12429379"
   inkscape:connector-curvature="0" />
		<path
   id="XMLID_16483_"
   class="st1"
   d="m 503.53,575.6 -10.94,13.49 c -1.62,2 0,3.54 0,3.54 l 10.4,13.05 29.93,-38.19 -14.13,-19.09 -0.07,-0.08 c -0.87,-1.15 -2.25,-1.9 -3.8,-1.91 l -0.12,-0.01 -17.28,-0.1 c -3.72,-0.18 -7.48,1.33 -10.04,4.41 l -48.53,62.29 10.86,13.69 c 0,0 0.95,1.62 2.19,0 l 33.8,-44.26 10.29,-12.92 0.05,-0.06 c 0.89,-1.08 2.24,-1.77 3.75,-1.76 2.66,0.02 4.79,2.19 4.77,4.85 -0.01,1.15 -0.42,2.2 -1.09,3.02 z"
   style="fill:#004519;fill-opacity:0.12429379"
   inkscape:connector-curvature="0" />
		<path
   id="XMLID_16481_"
   class="st1"
   d="m 573.43,575.6 -10.94,13.49 c -1.62,2 0,3.54 0,3.54 l 10.4,13.05 29.93,-38.19 -14.13,-19.09 -0.07,-0.08 c -0.87,-1.15 -2.25,-1.9 -3.8,-1.91 l -0.12,-0.01 -17.28,-0.1 c -3.72,-0.18 -7.48,1.33 -10.04,4.41 l -48.53,62.29 10.86,13.69 c 0,0 0.95,1.62 2.19,0 l 33.8,-44.26 10.3,-12.93 0.05,-0.06 c 0.89,-1.08 2.24,-1.77 3.75,-1.76 2.66,0.02 4.79,2.19 4.77,4.85 -0.01,1.15 -0.42,2.2 -1.09,3.02 z"
   style="fill:#004519;fill-opacity:0.12429379"
   inkscape:connector-curvature="0" />
		<path
   id="XMLID_16479_"
   class="st1"
   d="m 643.99,575.6 -10.94,13.49 c -1.62,2 0,3.54 0,3.54 l 10.4,13.05 29.93,-38.19 -14.13,-19.09 -0.07,-0.08 c -0.87,-1.15 -2.25,-1.9 -3.8,-1.91 l -0.12,-0.01 -17.28,-0.1 c -3.72,-0.18 -7.48,1.33 -10.04,4.41 l -48.52,62.29 10.86,13.69 c 0,0 0.95,1.62 2.19,0 l 33.8,-44.26 10.29,-12.92 0.05,-0.06 c 0.89,-1.08 2.24,-1.77 3.75,-1.76 2.66,0.02 4.79,2.19 4.77,4.85 -0.01,1.15 -0.42,2.2 -1.09,3.02 z"
   style="fill:#004519;fill-opacity:0.12429379"
   inkscape:connector-curvature="0" />
	</g>
</g>
</svg>